<svg width="16" height="16" viewBox="0 0 16 16" fill="none" xmlns="http://www.w3.org/2000/svg">
<path d="M0.500004 13.327C0.500505 13.1481 0.547523 12.9725 0.636413 12.8173L7.11816 1.99648C7.11838 1.99612 7.1186 1.99576 7.11882 1.9954C7.21071 1.84433 7.33991 1.71941 7.494 1.63265C7.64847 1.54569 7.82274 1.5 8 1.5C8.17726 1.5 8.35153 1.54569 8.506 1.63265C8.66011 1.71942 8.78932 1.84435 8.88121 1.99545C8.88142 1.99579 8.88163 1.99614 8.88184 1.99648L15.3636 12.8173C15.4525 12.9725 15.4995 13.1481 15.5 13.327C15.5005 13.5071 15.4538 13.6842 15.3647 13.8406C15.2755 13.9971 15.1469 14.1275 14.9917 14.2188C14.8371 14.3097 14.6616 14.3588 14.4824 14.3612H1.51763C1.33839 14.3588 1.16285 14.3097 1.00833 14.2188C0.85312 14.1275 0.724524 13.9971 0.635342 13.8406C0.54616 13.6842 0.4995 13.5071 0.500004 13.327Z" stroke="#505050" stroke-linecap="round" stroke-linejoin="round"/>
<path d="M8 5.67285V8.73563" stroke="#505050" stroke-linecap="round" stroke-linejoin="round"/>
<path d="M8 11.7984H8.00766" stroke="#505050" stroke-linecap="round" stroke-linejoin="round"/>
</svg>
