<svg width="16" height="17" viewBox="0 0 16 17" fill="none" xmlns="http://www.w3.org/2000/svg">
<g clip-path="url(#clip0)">
<path d="M11.917 0.68042H4.08423C1.92129 0.68042 0.167847 2.78099 0.167847 5.37215C0.167847 7.9633 1.92129 10.0639 4.08423 10.0639H9.5348L8.57868 12.3903C8.48851 12.6065 8.51033 12.8656 8.63473 13.0558C8.75914 13.246 8.96386 13.3333 9.16063 13.2802L10.6115 12.8824V15.6939C10.6115 16.0394 10.8453 16.3195 11.1337 16.3195H12.7003C12.9887 16.3195 13.2225 16.0394 13.2225 15.6939L13.2206 12.8817L14.6749 13.2809C14.8714 13.3333 15.0755 13.2458 15.1996 13.056C15.3237 12.8661 15.3457 12.6078 15.2561 12.3919L14.0029 9.34197C15.4788 8.22823 16.162 6.07942 15.6785 4.07166C15.195 2.06389 13.6613 0.68119 11.917 0.68042ZM13.3358 12.2715C13.1812 12.2303 13.0192 12.2755 12.8957 12.3943C12.7722 12.5131 12.7002 12.6926 12.7003 12.8824V15.694H11.1338V12.8824C11.1338 12.6923 11.0616 12.5125 10.9377 12.3938C10.8137 12.2751 10.6515 12.2303 10.4967 12.2722L9.04657 12.6681L11.917 5.68312L13.4313 9.36425V9.36737L13.4326 9.36924L14.789 12.6706L13.3358 12.2715ZM14.3172 8.24755C14.1509 8.44644 13.9678 8.62399 13.7708 8.77738L12.3841 5.40528C12.2958 5.1928 12.1148 5.05846 11.9166 5.05846C11.7185 5.05846 11.5374 5.1928 11.4491 5.40528L9.792 9.43829H4.08423C2.20966 9.43829 0.690042 7.6178 0.690042 5.37215C0.690042 3.12649 2.20969 1.306 4.08423 1.306H11.917C13.2899 1.30585 14.5277 2.29654 15.0531 3.81607C15.5786 5.33557 15.2881 7.08463 14.3172 8.24755Z" fill="#505050" stroke="#505050" stroke-width="0.05"/>
<path fill-rule="evenodd" clip-rule="evenodd" d="M0 5.37218C0 2.70021 1.81197 0.5 4.08422 0.5H11.917C13.7485 0.500808 15.3411 1.95084 15.8409 4.02646C16.3281 6.04939 15.6714 8.21951 14.2111 9.40226L15.4094 12.3185C15.4094 12.3185 15.4094 12.3184 15.4094 12.3185C15.5223 12.591 15.4957 12.9169 15.3369 13.1598C15.1764 13.4053 14.9039 13.5279 14.6345 13.456L13.3886 13.1141L13.3903 15.6938C13.3903 16.1202 13.098 16.5 12.7003 16.5H11.1337C10.736 16.5 10.4437 16.1203 10.4437 15.694V13.1146L9.20209 13.4551C8.93227 13.528 8.65832 13.4056 8.49743 13.1596C8.49743 13.1596 8.49743 13.1596 8.49743 13.1596C8.33831 12.9163 8.31174 12.5899 8.42527 12.3171L9.27714 10.2444H9.53478V10.0639L9.38127 9.99097L9.27714 10.2444H4.08422C1.81197 10.2444 0 8.04414 0 5.37218ZM11.9169 0.860902C11.9169 0.860902 11.9169 0.860902 11.9169 0.860902H4.08422C2.03057 0.860902 0.335666 2.86184 0.335666 5.37218C0.335666 7.88252 2.03057 9.88345 4.08422 9.88345H9.79243L8.73218 12.4633C8.66965 12.6132 8.68069 12.7923 8.75674 12.9269L11.916 5.23894C11.7919 5.2392 11.6669 5.32388 11.6025 5.47857C11.6025 5.47868 11.6026 5.47846 11.6025 5.47857L9.90132 9.61878H4.08422C2.10034 9.61878 0.522195 7.69864 0.522195 5.37218C0.522195 3.04571 2.10038 1.12558 4.08422 1.12558H11.917C13.3687 1.12542 14.6637 2.17214 15.2104 3.75322C15.7566 5.33263 15.4566 7.15299 14.4421 8.36812C14.2681 8.57629 14.076 8.76253 13.8692 8.92357L13.7011 9.05441L12.2309 5.4789C12.2308 5.4788 12.2309 5.47901 12.2309 5.4789C12.1666 5.32444 12.0418 5.23946 11.9178 5.23894L13.5991 9.32616V9.32799L15.0777 12.9268C15.1534 12.7925 15.1649 12.6151 15.1028 12.4654L13.7937 9.27941L13.9064 9.1943C15.32 8.12764 15.9836 6.05859 15.516 4.11692C15.0488 2.17704 13.574 0.86167 11.9169 0.860902ZM15.073 12.9349L13.2954 12.4467C13.2952 12.4466 13.2956 12.4467 13.2954 12.4467C13.1974 12.4208 13.0916 12.448 13.0076 12.5288C12.9221 12.6109 12.8681 12.7402 12.8681 12.8824V15.8745H10.9659V12.8824C10.9659 12.74 10.9117 12.6106 10.826 12.5286C10.7417 12.4478 10.6361 12.4207 10.5377 12.4472C10.5377 12.4472 10.5378 12.4471 10.5377 12.4472L8.76001 12.9326C8.76385 12.9392 8.76785 12.9456 8.772 12.952C8.85985 13.0863 8.99579 13.1385 9.11942 13.1053C9.11952 13.1053 9.11932 13.1053 9.11942 13.1053L10.7793 12.6501V15.694C10.7793 15.9587 10.9546 16.1391 11.1337 16.1391H12.7003C12.8793 16.1391 13.0546 15.9587 13.0546 15.6941C13.0546 15.694 13.0546 15.6941 13.0546 15.6941L13.0526 12.6494L14.7153 13.1057C14.7155 13.1058 14.7152 13.1057 14.7153 13.1057C14.8387 13.1385 14.9746 13.0863 15.0623 12.9522C15.066 12.9466 15.0696 12.9408 15.073 12.9349ZM14.1924 8.12694C15.1196 7.01623 15.4005 5.33852 14.8958 3.87898C14.3917 2.42099 13.2111 1.48634 11.917 1.48648H4.08422C2.31898 1.48648 0.857861 3.20734 0.857861 5.37218C0.857861 7.53702 2.31895 9.25788 4.08422 9.25788H9.68265L11.2956 5.33239C11.4077 5.06256 11.6448 4.87804 11.9166 4.87804C12.1884 4.87804 12.4253 5.06189 12.5373 5.33172L13.8376 8.49361C13.9629 8.38207 14.0815 8.25956 14.1924 8.12694ZM11.9171 6.12945L9.33941 12.402L10.4553 12.0973C10.6665 12.0402 10.8858 12.1025 11.0493 12.2591C11.2115 12.4145 11.3016 12.6447 11.3016 12.8824V15.5136H12.5325V12.8825C12.5325 12.8825 12.5325 12.8825 12.5325 12.8825C12.5324 12.6451 12.6221 12.4152 12.7838 12.2598C12.9467 12.1031 13.1651 12.0402 13.3762 12.0964L13.3773 12.0967L14.4959 12.4039L13.287 9.46138L13.2635 9.42796V9.40241L11.9171 6.12945Z" fill="#505050"/>
<path d="M11.917 0.5H4.08422C1.81197 0.5 0 2.70021 0 5.37218C0 8.04414 1.81197 10.2444 4.08422 10.2444H9.27714M11.917 0.5V0.68185M11.917 0.5C13.7485 0.500808 15.3411 1.95084 15.8409 4.02646C16.3281 6.04939 15.6714 8.21951 14.2111 9.40226L15.4094 12.3185M15.4094 12.3185C15.4094 12.3184 15.4094 12.3185 15.4094 12.3185ZM15.4094 12.3185C15.5223 12.591 15.4957 12.9169 15.3369 13.1598C15.1764 13.4053 14.9039 13.5279 14.6345 13.456L13.3886 13.1141L13.3903 15.6938C13.3903 16.1202 13.098 16.5 12.7003 16.5H11.1337C10.736 16.5 10.4437 16.1203 10.4437 15.694V13.1146L9.20209 13.4551C8.93227 13.528 8.65832 13.4056 8.49743 13.1596M8.49743 13.1596L8.63079 13.0588M8.49743 13.1596C8.49743 13.1596 8.49743 13.1596 8.49743 13.1596ZM8.49743 13.1596C8.33831 12.9163 8.31174 12.5899 8.42527 12.3171M8.42527 12.3171L8.57867 12.3904M8.42527 12.3171L9.27714 10.2444M9.27714 10.2444H9.53478V10.0639L9.38127 9.99097L9.27714 10.2444ZM11.9169 0.860902C11.9169 0.860902 11.9169 0.860902 11.9169 0.860902ZM11.9169 0.860902H4.08422C2.03057 0.860902 0.335666 2.86184 0.335666 5.37218C0.335666 7.88252 2.03057 9.88345 4.08422 9.88345H9.79243L8.73218 12.4633C8.66965 12.6132 8.68069 12.7923 8.75674 12.9269L11.916 5.23894C11.7919 5.2392 11.6669 5.32388 11.6025 5.47857M11.9169 0.860902C13.574 0.86167 15.0488 2.17704 15.516 4.11692C15.9836 6.05859 15.32 8.12764 13.9064 9.1943L13.7937 9.27941L15.1028 12.4654C15.1649 12.6151 15.1534 12.7925 15.0777 12.9268L13.5991 9.32799V9.32616L11.9178 5.23894C12.0418 5.23946 12.1666 5.32444 12.2309 5.4789M11.6025 5.47857C11.6026 5.47846 11.6025 5.47868 11.6025 5.47857ZM11.6025 5.47857L9.90132 9.61878H4.08422C2.10034 9.61878 0.522195 7.69864 0.522195 5.37218C0.522195 3.04571 2.10038 1.12558 4.08422 1.12558H11.917C13.3687 1.12542 14.6637 2.17214 15.2104 3.75322C15.7566 5.33263 15.4566 7.15299 14.4421 8.36812M14.4421 8.36812L14.317 8.24739M14.4421 8.36812C14.2681 8.57629 14.076 8.76253 13.8692 8.92357L13.7012 9.05441L12.2309 5.4789M12.2309 5.4789C12.2309 5.47901 12.2308 5.4788 12.2309 5.4789ZM13.2954 12.4467C13.2956 12.4467 13.2952 12.4466 13.2954 12.4467ZM13.2954 12.4467C13.1974 12.4208 13.0916 12.448 13.0076 12.5288C12.9221 12.6109 12.8681 12.7402 12.8681 12.8824V15.8745H10.9659V12.8824C10.9659 12.74 10.9117 12.6106 10.826 12.5286C10.7417 12.4478 10.6361 12.4207 10.5377 12.4472M13.2954 12.4467L15.073 12.9349C15.0696 12.9408 15.066 12.9466 15.0623 12.9522C14.9746 13.0863 14.8387 13.1385 14.7153 13.1057M10.5377 12.4472C10.5378 12.4471 10.5377 12.4472 10.5377 12.4472ZM10.5377 12.4472L8.76001 12.9326C8.76385 12.9392 8.76785 12.9456 8.772 12.952C8.85985 13.0863 8.99579 13.1385 9.11942 13.1053M9.11942 13.1053C9.11932 13.1053 9.11952 13.1053 9.11942 13.1053ZM9.11942 13.1053L10.7793 12.6501V15.694C10.7793 15.9587 10.9546 16.1391 11.1337 16.1391H12.7003C12.8793 16.1391 13.0546 15.9587 13.0546 15.6941M13.0546 15.6941C13.0546 15.6941 13.0546 15.694 13.0546 15.6941ZM13.0546 15.6941L13.0526 12.6494L14.7153 13.1057M14.7153 13.1057C14.7152 13.1057 14.7155 13.1058 14.7153 13.1057ZM12.5325 12.8825V15.5136H11.3016V12.8824C11.3016 12.6447 11.2115 12.4145 11.0493 12.2591C10.8858 12.1025 10.6665 12.0402 10.4553 12.0973L9.33941 12.402L11.9171 6.12945L13.2635 9.40241V9.42796L13.287 9.46138L14.4959 12.4039L13.3773 12.0967L13.3762 12.0964C13.1651 12.0402 12.9467 12.1031 12.7838 12.2598C12.6221 12.4152 12.5324 12.6451 12.5325 12.8825ZM12.5325 12.8825C12.5325 12.8825 12.5325 12.8825 12.5325 12.8825ZM14.8958 3.87898C15.4005 5.33852 15.1196 7.01623 14.1924 8.12694C14.0815 8.25956 13.9629 8.38207 13.8376 8.49361L12.5373 5.33172C12.4253 5.06189 12.1884 4.87804 11.9166 4.87804C11.6448 4.87804 11.4077 5.06256 11.2956 5.33239L9.68265 9.25788H4.08422C2.31895 9.25788 0.857861 7.53702 0.857861 5.37218C0.857861 3.20734 2.31898 1.48648 4.08422 1.48648H11.917C13.2111 1.48634 14.3917 2.42099 14.8958 3.87898Z" stroke="#505050" stroke-width="0.05"/>
</g>
<defs>
<clipPath id="clip0">
<rect width="16" height="16" fill="white" transform="translate(0 0.5)"/>
</clipPath>
</defs>
</svg>
