<svg width="16" height="17" viewBox="0 0 16 17" fill="none" xmlns="http://www.w3.org/2000/svg">
<g clip-path="url(#clip0)">
<path d="M15.5416 8.30027C15.2869 8.30027 15.0832 8.5201 15.0832 8.79489V13.2941C15.0832 14.5178 14.1596 15.5107 13.0289 15.5107H2.97114C1.83701 15.5107 0.916808 14.5141 0.916808 13.2941V8.72161C0.916808 8.44682 0.713073 8.22699 0.458404 8.22699C0.203735 8.22699 0 8.44682 0 8.72161V13.2941C0 15.0637 1.33447 16.4999 2.97114 16.4999H13.0289C14.6689 16.4999 16 15.0601 16 13.2941V8.79489C16 8.52376 15.7963 8.30027 15.5416 8.30027Z" fill="#505050"/>
<path d="M7.67678 12.5724C7.76507 12.6676 7.88391 12.7189 7.99936 12.7189C8.11481 12.7189 8.23366 12.6713 8.32194 12.5724L11.2354 9.42879C11.4153 9.2346 11.4153 8.92317 11.2354 8.72899C11.0554 8.53481 10.7668 8.53481 10.5868 8.72899L8.45777 11.0299V0.994619C8.45777 0.719831 8.25403 0.5 7.99936 0.5C7.74469 0.5 7.54096 0.719831 7.54096 0.994619V11.0299L5.40853 8.72899C5.22857 8.53481 4.93994 8.53481 4.75997 8.72899C4.58001 8.92317 4.58001 9.2346 4.75997 9.42879L7.67678 12.5724Z" fill="#505050"/>
</g>
<defs>
<clipPath id="clip0">
<rect width="16" height="16" fill="white" transform="translate(0 0.5)"/>
</clipPath>
</defs>
</svg>
