<svg width="16" height="16" viewBox="0 0 16 16" fill="none" xmlns="http://www.w3.org/2000/svg">
<path d="M9.41332 9.41337C9.23022 9.60987 9.00942 9.76747 8.76409 9.87679C8.51876 9.9861 8.25392 10.0449 7.98538 10.0496C7.71684 10.0544 7.4501 10.005 7.20106 9.90436C6.95203 9.80378 6.7258 9.65406 6.53589 9.46414C6.34597 9.27422 6.19625 9.048 6.09566 8.79896C5.99507 8.54993 5.94567 8.28318 5.95041 8.01464C5.95515 7.7461 6.01393 7.48127 6.12324 7.23594C6.23255 6.9906 6.39016 6.7698 6.58666 6.5867M11.96 11.96C10.8204 12.8287 9.43273 13.3099 7.99999 13.3334C3.33332 13.3334 0.666656 8.00004 0.666656 8.00004C1.49592 6.45463 2.64608 5.10444 4.03999 4.04004L11.96 11.96ZM6.59999 2.8267C7.05888 2.71929 7.5287 2.6656 7.99999 2.6667C12.6667 2.6667 15.3333 8.00004 15.3333 8.00004C14.9286 8.75711 14.446 9.46986 13.8933 10.1267L6.59999 2.8267Z" stroke="#505050" stroke-linecap="round" stroke-linejoin="round"/>
<path d="M0.666656 0.666687L15.3333 15.3334" stroke="#505050" stroke-linecap="round" stroke-linejoin="round"/>
</svg>
