<svg width="16" height="16" viewBox="0 0 16 16" fill="none" xmlns="http://www.w3.org/2000/svg">
<g clip-path="url(#clip0)">
<path d="M1.77778 0.5H14.2222C14.9279 0.5 15.5 1.07208 15.5 1.77778V14.2222C15.5 14.9279 14.9279 15.5 14.2222 15.5H1.77778C1.07208 15.5 0.5 14.9279 0.5 14.2222V1.77778C0.5 1.07208 1.07208 0.5 1.77778 0.5Z" stroke="#505050" stroke-linecap="round" stroke-linejoin="round"/>
<path d="M1.77778 0.5H14.2222C14.9279 0.5 15.5 1.07208 15.5 1.77778V14.2222C15.5 14.9279 14.9279 15.5 14.2222 15.5H1.77778C1.07208 15.5 0.5 14.9279 0.5 14.2222V1.77778C0.5 1.07208 1.07208 0.5 1.77778 0.5Z" stroke="#505050" stroke-linecap="round" stroke-linejoin="round"/>
<path d="M5.72221 4.88888C5.72221 5.34911 5.34911 5.72221 4.88888 5.72221C4.42864 5.72221 4.05554 5.34911 4.05554 4.88888C4.05554 4.42864 4.42864 4.05554 4.88888 4.05554C5.34911 4.05554 5.72221 4.42864 5.72221 4.88888Z" stroke="#505050" stroke-linecap="round" stroke-linejoin="round"/>
<path d="M5.72221 4.88888C5.72221 5.34911 5.34911 5.72221 4.88888 5.72221C4.42864 5.72221 4.05554 5.34911 4.05554 4.88888C4.05554 4.42864 4.42864 4.05554 4.88888 4.05554C5.34911 4.05554 5.72221 4.42864 5.72221 4.88888Z" stroke="#505050" stroke-linecap="round" stroke-linejoin="round"/>
<mask id="path-5-inside-1" fill="white">
<path d="M16 10.6667L11.5555 6.22223L1.77777 16"/>
</mask>
<path d="M15.2929 11.3738C15.6834 11.7643 16.3166 11.7643 16.7071 11.3738C17.0976 10.9833 17.0976 10.3501 16.7071 9.95957L15.2929 11.3738ZM11.5555 6.22223L12.2627 5.51512C11.8721 5.1246 11.239 5.1246 10.8484 5.51512L11.5555 6.22223ZM1.07066 15.2929C0.68014 15.6834 0.68014 16.3166 1.07066 16.7071C1.46119 17.0976 2.09435 17.0976 2.48488 16.7071L1.07066 15.2929ZM16.7071 9.95957L12.2627 5.51512L10.8484 6.92934L15.2929 11.3738L16.7071 9.95957ZM10.8484 5.51512L1.07066 15.2929L2.48488 16.7071L12.2627 6.92934L10.8484 5.51512Z" fill="#505050" mask="url(#path-5-inside-1)"/>
<mask id="path-7-inside-2" fill="white">
<path d="M16 10.6667L11.5555 6.22223L1.77777 16"/>
</mask>
<path d="M15.2929 11.3738C15.6834 11.7643 16.3166 11.7643 16.7071 11.3738C17.0976 10.9833 17.0976 10.3501 16.7071 9.95957L15.2929 11.3738ZM11.5555 6.22223L12.2627 5.51512C11.8721 5.1246 11.239 5.1246 10.8484 5.51512L11.5555 6.22223ZM1.07066 15.2929C0.68014 15.6834 0.68014 16.3166 1.07066 16.7071C1.46119 17.0976 2.09435 17.0976 2.48488 16.7071L1.07066 15.2929ZM16.7071 9.95957L12.2627 5.51512L10.8484 6.92934L15.2929 11.3738L16.7071 9.95957ZM10.8484 5.51512L1.07066 15.2929L2.48488 16.7071L12.2627 6.92934L10.8484 5.51512Z" fill="#505050" mask="url(#path-7-inside-2)"/>
</g>
<defs>
<clipPath id="clip0">
<rect width="16" height="16" fill="white"/>
</clipPath>
</defs>
</svg>
