<svg width="16" height="17" viewBox="0 0 16 17" fill="none" xmlns="http://www.w3.org/2000/svg">
<g clip-path="url(#clip0)">
<path d="M13.8044 17.1072H2.19356C1.05072 17.1072 0.120193 16.241 0.120193 15.1772V2.05344C0.120193 0.989644 1.05072 0.123474 2.19356 0.123474H13.8044C14.9472 0.123474 15.8778 0.989644 15.8778 2.05344V15.1772C15.8778 16.241 14.9472 17.1072 13.8044 17.1072ZM2.19356 0.895462C1.50769 0.895462 0.94954 1.41501 0.94954 2.05344V15.1772C0.94954 15.8157 1.50769 16.3352 2.19356 16.3352H13.8044C14.4903 16.3352 15.0484 15.8157 15.0484 15.1772V2.05344C15.0484 1.41501 14.4903 0.895462 13.8044 0.895462H2.19356Z" fill="#505050"/>
<path fill-rule="evenodd" clip-rule="evenodd" d="M2.19458 0.247036C1.10812 0.247036 0.242424 1.06819 0.242424 2.05349V15.1773C0.242424 16.1626 1.10812 16.9837 2.19458 16.9837H13.8054C14.8919 16.9837 15.7576 16.1626 15.7576 15.1773V2.05349C15.7576 1.06819 14.8919 0.247036 13.8054 0.247036H2.19458ZM0 2.05349C0 0.911186 0.995354 0 2.19458 0H13.8054C15.0046 0 16 0.911186 16 2.05349V15.1773C16 16.3196 15.0046 17.2308 13.8054 17.2308H2.19458C0.995354 17.2308 0 16.3196 0 15.1773V2.05349ZM0.829346 2.05349C0.829346 1.33655 1.45232 0.771988 2.19458 0.771988H13.8054C14.5477 0.771988 15.1707 1.33655 15.1707 2.05349V15.1773C15.1707 15.8942 14.5477 16.4588 13.8054 16.4588H2.19458C1.45232 16.4588 0.829346 15.8942 0.829346 15.1773V2.05349ZM2.19458 1.01902C1.56509 1.01902 1.07177 1.49356 1.07177 2.05349V15.1773C1.07177 15.7372 1.56509 16.2117 2.19458 16.2117H13.8054C14.4349 16.2117 14.9282 15.7372 14.9282 15.1773V2.05349C14.9282 1.49356 14.4349 1.01902 13.8054 1.01902H2.19458Z" fill="#505050"/>
<path d="M12.9762 12.4754H3.85338C3.62448 12.4754 3.43871 12.3024 3.43871 12.0894C3.43871 11.8763 3.62448 11.7034 3.85338 11.7034H12.9762C13.2051 11.7034 13.3909 11.8763 13.3909 12.0894C13.3909 12.3024 13.2051 12.4754 12.9762 12.4754Z" fill="#505050"/>
<path fill-rule="evenodd" clip-rule="evenodd" d="M3.85319 11.8269C3.68068 11.8269 3.55973 11.9548 3.55973 12.0893C3.55973 12.2239 3.68068 12.3518 3.85319 12.3518H12.976C13.1485 12.3518 13.2695 12.2239 13.2695 12.0893C13.2695 11.9548 13.1485 11.8269 12.976 11.8269H3.85319ZM3.31731 12.0893C3.31731 11.7978 3.56791 11.5798 3.85319 11.5798H12.976C13.2613 11.5798 13.5119 11.7978 13.5119 12.0893C13.5119 12.3809 13.2613 12.5989 12.976 12.5989H3.85319C3.56791 12.5989 3.31731 12.3809 3.31731 12.0893Z" fill="#505050"/>
<path d="M12.9762 9.38734H3.85338C3.62448 9.38734 3.43871 9.21442 3.43871 9.00135C3.43871 8.78828 3.62448 8.61536 3.85338 8.61536H12.9762C13.2051 8.61536 13.3909 8.78828 13.3909 9.00135C13.3909 9.21442 13.2051 9.38734 12.9762 9.38734Z" fill="#505050"/>
<path fill-rule="evenodd" clip-rule="evenodd" d="M3.85319 8.73892C3.68068 8.73892 3.55973 8.86683 3.55973 9.00139C3.55973 9.13596 3.68068 9.26387 3.85319 9.26387H12.976C13.1485 9.26387 13.2695 9.13596 13.2695 9.00139C13.2695 8.86683 13.1485 8.73892 12.976 8.73892H3.85319ZM3.31731 9.00139C3.31731 8.70982 3.56791 8.49188 3.85319 8.49188H12.976C13.2613 8.49188 13.5119 8.70982 13.5119 9.00139C13.5119 9.29296 13.2613 9.51091 12.976 9.51091H3.85319C3.56791 9.51091 3.31731 9.29296 3.31731 9.00139Z" fill="#505050"/>
<path d="M8.82945 6.29939H3.85338C3.62448 6.29939 3.43871 6.12647 3.43871 5.9134C3.43871 5.70033 3.62448 5.5274 3.85338 5.5274H8.82945C9.05835 5.5274 9.24413 5.70033 9.24413 5.9134C9.24413 6.12647 9.05835 6.29939 8.82945 6.29939Z" fill="#505050"/>
<path fill-rule="evenodd" clip-rule="evenodd" d="M3.85319 5.65097C3.68068 5.65097 3.55973 5.77888 3.55973 5.91344C3.55973 6.04801 3.68068 6.17592 3.85319 6.17592H8.82927C9.00178 6.17592 9.12273 6.04801 9.12273 5.91344C9.12273 5.77888 9.00178 5.65097 8.82927 5.65097H3.85319ZM3.31731 5.91344C3.31731 5.62187 3.56791 5.40393 3.85319 5.40393H8.82927C9.11455 5.40393 9.36515 5.62187 9.36515 5.91344C9.36515 6.20501 9.11455 6.42295 8.82927 6.42295H3.85319C3.56791 6.42295 3.31731 6.20501 3.31731 5.91344Z" fill="#505050"/>
</g>
<defs>
<clipPath id="clip0">
<rect width="16" height="17" fill="white"/>
</clipPath>
</defs>
</svg>
