<svg width="16" height="16" viewBox="0 0 16 16" fill="none" xmlns="http://www.w3.org/2000/svg">
<g clip-path="url(#clip0)">
<path d="M5.77226 7.10654C3.86261 7.10654 2.30899 5.5462 2.30899 3.62828C2.30899 1.71037 3.86261 0.150024 5.77226 0.150024C7.68191 0.150024 9.23553 1.71037 9.23553 3.62828C9.23553 5.5462 7.68191 7.10654 5.77226 7.10654ZM5.77226 0.845676C4.24426 0.845676 3.00164 2.09368 3.00164 3.62828C3.00164 5.16289 4.24426 6.41089 5.77226 6.41089C7.30025 6.41089 8.54287 5.16289 8.54287 3.62828C8.54287 2.09368 7.30025 0.845676 5.77226 0.845676Z" fill="#505050"/>
<path fill-rule="evenodd" clip-rule="evenodd" d="M5.77227 0.3C3.94607 0.3 2.459 1.79258 2.459 3.62826C2.459 5.46394 3.94607 6.95652 5.77227 6.95652C7.59846 6.95652 9.08553 5.46394 9.08553 3.62826C9.08553 1.79258 7.59846 0.3 5.77227 0.3ZM2.159 3.62826C2.159 1.62812 3.77917 0 5.77227 0C7.76536 0 9.38553 1.62812 9.38553 3.62826C9.38553 5.6284 7.76536 7.25652 5.77227 7.25652C3.77917 7.25652 2.159 5.6284 2.159 3.62826ZM2.85165 3.62826C2.85165 2.01142 4.16082 0.695652 5.77227 0.695652C7.38371 0.695652 8.69288 2.01142 8.69288 3.62826C8.69288 5.2451 7.38371 6.56087 5.77227 6.56087C4.16082 6.56087 2.85165 5.2451 2.85165 3.62826ZM5.77227 0.995652C4.32772 0.995652 3.15165 2.17588 3.15165 3.62826C3.15165 5.08064 4.32772 6.26087 5.77227 6.26087C7.21681 6.26087 8.39288 5.08064 8.39288 3.62826C8.39288 2.17588 7.21681 0.995652 5.77227 0.995652Z" fill="#505050"/>
<path d="M4.65224 14.1456H0.496321C0.305148 14.1456 0.149994 13.9898 0.149994 13.7978V11.0152C0.149994 9.28929 1.54846 7.88477 3.26694 7.88477H9.50082C10.3507 7.88477 11.1687 8.23607 11.7471 8.84894C11.8787 8.98807 11.8732 9.20859 11.7339 9.34077C11.5954 9.47363 11.3758 9.46737 11.2442 9.32755C10.7968 8.85311 10.1609 8.58042 9.50082 8.58042H3.26694C1.93011 8.58042 0.842648 9.67259 0.842648 11.0152V13.45H4.65224C4.84342 13.45 4.99857 13.6058 4.99857 13.7978C4.99857 13.9898 4.84342 14.1456 4.65224 14.1456Z" fill="#505050"/>
<path fill-rule="evenodd" clip-rule="evenodd" d="M3.26694 8.03474C1.63192 8.03474 0.3 9.37149 0.3 11.0152V13.7978C0.3 13.9075 0.388607 13.9956 0.496327 13.9956H4.65225C4.75997 13.9956 4.84858 13.9075 4.84858 13.7978C4.84858 13.688 4.75997 13.6 4.65225 13.6H0.692654V11.0152C0.692654 9.59034 1.84667 8.43039 3.26694 8.43039H9.50083C10.2017 8.43039 10.8772 8.71974 11.3534 9.22461C11.4282 9.30409 11.5522 9.30726 11.6301 9.23249C11.7092 9.1574 11.713 9.03115 11.6381 8.95199C11.0884 8.36942 10.3098 8.03474 9.50083 8.03474H3.26694ZM0 11.0152C0 9.20703 1.46502 7.73474 3.26694 7.73474H9.50083C10.3916 7.73474 11.2492 8.1028 11.8562 8.74596C12.0443 8.94497 12.0365 9.25998 11.8375 9.44923C11.6384 9.63992 11.3234 9.63041 11.1351 9.43044C10.7164 8.98643 10.1201 8.73039 9.50083 8.73039H3.26694C2.01357 8.73039 0.992654 9.7548 0.992654 11.0152V13.3H4.65225C4.92688 13.3 5.14858 13.5236 5.14858 13.7978C5.14858 14.072 4.92688 14.2956 4.65225 14.2956H0.496327C0.221702 14.2956 0 14.072 0 13.7978V11.0152Z" fill="#505050"/>
<path d="M9.46719 15.85C9.34021 15.85 9.22397 15.7763 9.16686 15.658L7.91583 13.0674H6.10782C5.92238 13.0674 5.77188 12.9116 5.77188 12.7196C5.77188 12.5276 5.92238 12.3717 6.10782 12.3717H8.12344C8.25043 12.3717 8.36666 12.4462 8.42377 12.5637L9.44367 14.6757L11.1738 10.4956C11.2255 10.3711 11.3417 10.289 11.4727 10.2848C11.6024 10.2897 11.7247 10.3557 11.7831 10.4768L13.706 14.4587H15.5141C15.6995 14.4587 15.85 14.6145 15.85 14.8065C15.85 14.9985 15.6995 15.1543 15.5141 15.1543H13.4984C13.3715 15.1543 13.2552 15.0799 13.1981 14.9623L11.5063 11.459L9.77625 15.6392C9.72452 15.7637 9.60828 15.8458 9.47727 15.85C9.47391 15.85 9.47055 15.85 9.46719 15.85Z" fill="#505050"/>
<path fill-rule="evenodd" clip-rule="evenodd" d="M11.4784 10.1349C11.6535 10.1414 11.8316 10.2321 11.9182 10.4115L13.8002 14.3087H15.5141C15.7872 14.3087 16 14.5366 16 14.8065C16 15.0764 15.7872 15.3043 15.5141 15.3043H13.4984C13.3117 15.3043 13.1444 15.195 13.0632 15.0279L11.5169 11.8258L9.91486 15.6965C9.84144 15.8733 9.67424 15.9938 9.48205 15.9999L9.47727 16L9.46723 16C9.28096 16 9.11317 15.8917 9.03179 15.7232L7.8217 13.2174H6.10782C5.83467 13.2174 5.62189 12.9894 5.62189 12.7195C5.62189 12.4496 5.83467 12.2217 6.10782 12.2217H8.12345C8.31014 12.2217 8.4775 12.331 8.5587 12.4982L9.43314 14.3089L11.0352 10.4382C11.1086 10.2615 11.2758 10.1409 11.468 10.1348L11.4784 10.1349ZM11.3123 10.5531C11.3123 10.5531 11.3123 10.5531 11.3123 10.5531L9.45422 15.0425L8.28885 12.6292C8.28882 12.6292 8.28888 12.6293 8.28885 12.6292C8.2558 12.5614 8.19066 12.5217 8.12345 12.5217H6.10782C6.0101 12.5217 5.92189 12.6054 5.92189 12.7195C5.92189 12.8336 6.0101 12.9174 6.10782 12.9174H8.00998L9.30194 15.5927C9.33478 15.6607 9.39951 15.7 9.4672 15.7H9.47422C9.5433 15.697 9.60798 15.6533 9.63774 15.5816L11.4958 11.0922L13.333 14.8968C13.3331 14.8968 13.333 14.8967 13.333 14.8968C13.3661 14.9646 13.4312 15.0043 13.4984 15.0043H15.5141C15.6118 15.0043 15.7 14.9206 15.7 14.8065C15.7 14.6924 15.6118 14.6087 15.5141 14.6087H13.6119L11.6481 10.542C11.6185 10.4807 11.5541 10.4396 11.4725 10.4349C11.4046 10.439 11.3416 10.4825 11.3123 10.5531Z" fill="#505050"/>
</g>
<defs>
<clipPath id="clip0">
<rect width="16" height="16" fill="white"/>
</clipPath>
</defs>
</svg>
