<svg width="16" height="16" viewBox="0 0 16 16" fill="none" xmlns="http://www.w3.org/2000/svg">
<path fill-rule="evenodd" clip-rule="evenodd" d="M0.550006 0C0.853763 0 1.10001 0.246243 1.10001 0.55L1.10001 15.45C1.10001 15.7538 0.853763 16 0.550006 16C0.246249 16 6.07967e-06 15.7538 6.07967e-06 15.45L6.07967e-06 0.55C6.07967e-06 0.246243 0.246249 0 0.550006 0Z" fill="#505050"/>
<path fill-rule="evenodd" clip-rule="evenodd" d="M0 15.45C0 15.1463 0.246243 14.9 0.55 14.9H15.45C15.7538 14.9 16 15.1463 16 15.45C16 15.7538 15.7538 16 15.45 16H0.55C0.246243 16 0 15.7538 0 15.45Z" fill="#505050"/>
<path fill-rule="evenodd" clip-rule="evenodd" d="M13.2 7.59998C12.8962 7.59998 12.65 7.35373 12.65 7.04998V3.14998C12.65 2.84622 12.8962 2.59998 13.2 2.59998C13.5038 2.59998 13.75 2.84622 13.75 3.14998V7.04998C13.75 7.35373 13.5038 7.59998 13.2 7.59998Z" fill="#505050"/>
<path fill-rule="evenodd" clip-rule="evenodd" d="M13.5 3.04998C13.5 3.35373 13.2538 3.59998 12.95 3.59998H9.05C8.74624 3.59998 8.5 3.35373 8.5 3.04998C8.5 2.74622 8.74624 2.49998 9.05 2.49998H12.95C13.2538 2.49998 13.5 2.74622 13.5 3.04998Z" fill="#505050"/>
<path fill-rule="evenodd" clip-rule="evenodd" d="M2.92722 12.4188C2.66617 12.2635 2.58044 11.9259 2.73575 11.6649L6.07715 6.04839C6.23245 5.78734 6.56998 5.70161 6.83103 5.85692C7.09208 6.01223 7.1778 6.34975 7.0225 6.6108L3.6811 12.2273C3.5258 12.4884 3.18827 12.5741 2.92722 12.4188Z" fill="#505050"/>
<path fill-rule="evenodd" clip-rule="evenodd" d="M9.65165 7.78157C9.40399 7.60571 9.34579 7.26236 9.52166 7.0147L12.16 3.29931C12.3359 3.05164 12.6792 2.99344 12.9269 3.16931C13.1745 3.34518 13.2327 3.68852 13.0569 3.93619L10.4185 7.65158C10.2427 7.89924 9.89932 7.95744 9.65165 7.78157Z" fill="#505050"/>
<path fill-rule="evenodd" clip-rule="evenodd" d="M6.18063 6.08053C6.28038 5.79362 6.59384 5.6419 6.88075 5.74166L10.0922 6.85826C10.3791 6.95802 10.5308 7.27147 10.431 7.55838C10.3313 7.84529 10.0178 7.99701 9.73091 7.89725L6.51949 6.78065C6.23258 6.68089 6.08087 6.36744 6.18063 6.08053Z" fill="#505050"/>
</svg>
