<svg width="14" height="16" viewBox="0 0 14 16" fill="none" xmlns="http://www.w3.org/2000/svg">
<path d="M13.7091 12.6446L9.86131 6.04078V0.9375H10.3845C10.6791 0.9375 10.918 0.727625 10.918 0.46875C10.918 0.209875 10.6791 0 10.3845 0H3.61553C3.32085 0 3.08195 0.209875 3.08195 0.46875C3.08195 0.727625 3.32085 0.9375 3.61553 0.9375H4.13868V6.04078L0.290858 12.6446C-0.128852 13.3649 -0.0924974 14.2071 0.38804 14.8975C0.868578 15.5878 1.70537 16 2.62649 16H11.3735C12.2946 16 13.1314 15.5878 13.6119 14.8975C14.0925 14.2071 14.1288 13.3649 13.7091 12.6446ZM5.14724 6.36737C5.18577 6.30125 5.20583 6.22806 5.20583 6.15378V0.9375H8.79412V6.15378C8.79412 6.22803 8.81418 6.30125 8.85271 6.36737L10.3374 8.91547H3.66255L5.14724 6.36737ZM11.3735 15.0625H2.62649C2.08004 15.0625 1.58357 14.818 1.29846 14.4084C1.13807 14.178 1.06109 13.9191 1.06874 13.6606C1.07301 13.517 1.10339 13.3735 1.16009 13.2351C1.18278 13.1797 3.11628 9.85297 3.11628 9.85297H10.8837C10.8837 9.85297 12.7893 13.1255 12.8027 13.1527C12.8834 13.3161 12.9262 13.4883 12.9312 13.6606C12.9389 13.9191 12.8619 14.178 12.7015 14.4084C12.4165 14.818 11.92 15.0625 11.3735 15.0625Z" fill="#505050"/>
</svg>
