<svg width="16" height="16" viewBox="0 0 16 16" fill="none" xmlns="http://www.w3.org/2000/svg">
<g clip-path="url(#clip0)">
<path d="M15.5211 8.42164L8.94112 15.5093C8.72553 15.7414 8.37649 15.741 8.16127 15.5081C7.94621 15.2752 7.94677 14.898 8.16238 14.6657L14.3507 7.99994L8.16216 1.33418C7.94657 1.10189 7.94602 0.724911 8.16105 0.492019C8.26894 0.375272 8.41028 0.316899 8.55162 0.316899C8.69261 0.316899 8.83339 0.374882 8.94109 0.490818L15.5211 7.57828C15.6249 7.68986 15.6832 7.84172 15.6832 7.99994C15.6832 8.15817 15.6248 8.30985 15.5211 8.42164Z" fill="#505050"/>
<path fill-rule="evenodd" clip-rule="evenodd" d="M7.92868 15.7232C8.2691 16.0916 8.83225 16.0924 9.17348 15.725L15.7535 8.6373C15.9136 8.4647 16.0003 8.23506 16.0003 7.99997C16.0003 7.76535 15.9142 7.53543 15.7535 7.36263C15.7534 7.36256 15.7536 7.3627 15.7535 7.36263L9.17352 0.275215C9.00622 0.0951201 8.78142 6.08585e-07 8.55179 6.08585e-07C8.32149 6.08585e-07 8.09595 0.0957065 7.92846 0.276949C7.60109 0.631516 7.60185 1.19619 7.93003 1.5498L13.9184 7.99998L7.93028 14.4501C7.60204 14.8037 7.60124 15.3687 7.92868 15.7232ZM8.39419 15.293C8.29159 15.1818 8.29186 14.9923 8.39481 14.8814C8.39482 14.8814 8.39481 14.8814 8.39481 14.8814L14.7833 7.99997L8.39462 1.11862C8.29166 1.00768 8.29138 0.818378 8.39397 0.707146C8.44226 0.654895 8.49941 0.633853 8.55179 0.633853C8.60411 0.633853 8.66091 0.65475 8.70899 0.706479C8.70901 0.7065 8.70897 0.706458 8.70899 0.706479L15.289 7.79394C15.3358 7.84428 15.3664 7.91825 15.3664 7.99997C15.3664 8.08133 15.3362 8.15518 15.2889 8.20617L8.70908 15.2936C8.70906 15.2936 8.7091 15.2936 8.70908 15.2936C8.61917 15.3903 8.4842 15.3903 8.39419 15.293Z" fill="#505050"/>
<path d="M7.83762 8.42164L1.25765 15.5093C1.04206 15.7414 0.693022 15.741 0.477798 15.5081C0.262741 15.2752 0.263297 14.898 0.47891 14.6657L6.66723 7.99994L0.478687 1.33418C0.263102 1.10189 0.262546 0.724911 0.477576 0.492019C0.585466 0.375272 0.726809 0.316899 0.868153 0.316899C1.00913 0.316899 1.14992 0.374882 1.25762 0.490818L7.83762 7.57828C7.94146 7.68986 7.99972 7.84172 7.99972 7.99994C7.99972 8.15817 7.94129 8.30985 7.83762 8.42164Z" fill="#505050"/>
<path fill-rule="evenodd" clip-rule="evenodd" d="M0.24527 15.7232C0.585694 16.0916 1.14884 16.0924 1.49007 15.725L8.07012 8.6373C8.23017 8.4647 8.31688 8.23506 8.31688 7.99997C8.31688 7.76535 8.23076 7.53543 8.07007 7.36263C8.07 7.36256 8.07014 7.3627 8.07007 7.36263L1.49011 0.275215C1.32281 0.0951201 1.098 6.08585e-07 0.86838 6.08585e-07C0.638077 6.08585e-07 0.412541 0.0957065 0.245048 0.276949C-0.0823244 0.631516 -0.0815615 1.19619 0.246616 1.5498L6.235 7.99998L0.246872 14.4501C-0.0813703 14.8037 -0.0821671 15.3687 0.24527 15.7232ZM0.710782 15.293C0.608175 15.1818 0.608448 14.9923 0.711402 14.8814C0.711404 14.8814 0.7114 14.8814 0.711402 14.8814L7.09991 7.99997L0.711214 1.11862C0.608253 1.00768 0.60797 0.818378 0.710559 0.707146C0.758846 0.654895 0.815997 0.633853 0.86838 0.633853C0.920698 0.633853 0.9775 0.65475 1.02558 0.706479C1.0256 0.7065 1.02556 0.706458 1.02558 0.706479L7.60559 7.79394C7.65244 7.84428 7.68302 7.91825 7.68302 7.99997C7.68302 8.08133 7.65275 8.15518 7.60546 8.20617L1.02567 15.2936C1.02565 15.2936 1.02569 15.2936 1.02567 15.2936C0.93576 15.3903 0.800785 15.3903 0.710782 15.293Z" fill="#505050"/>
</g>
<defs>
<clipPath id="clip0">
<rect width="16" height="16" fill="white" transform="translate(16 16) rotate(-180)"/>
</clipPath>
</defs>
</svg>
