<svg width="16" height="16" viewBox="0 0 16 16" fill="none" xmlns="http://www.w3.org/2000/svg">
<g clip-path="url(#clip0)">
<path d="M12.6519 9.9115C12.3239 9.57043 11.9282 9.38808 11.5088 9.38808C11.0929 9.38808 10.6938 9.56705 10.3522 9.90812L9.28357 10.9719C9.19564 10.9246 9.10771 10.8807 9.02317 10.8368C8.90142 10.776 8.78644 10.7186 8.68836 10.6578C7.68734 10.0229 6.77762 9.19559 5.9051 8.1251C5.48237 7.59155 5.19829 7.14241 4.992 6.68653C5.26931 6.43326 5.52633 6.16986 5.77659 5.91659C5.87128 5.82203 5.96597 5.7241 6.06067 5.62955C6.77085 4.92039 6.77085 4.00186 6.06067 3.29271L5.13742 2.3708C5.03258 2.26612 4.92436 2.15806 4.82291 2.05C4.62 1.84063 4.40694 1.6245 4.18712 1.42189C3.85908 1.0977 3.46679 0.925476 3.0542 0.925476C2.64161 0.925476 2.24256 1.0977 1.90437 1.42189C1.90099 1.42526 1.90099 1.42526 1.89761 1.42864L0.747778 2.58693C0.314901 3.01918 0.0680254 3.54598 0.0139158 4.1572C-0.0672486 5.14327 0.223591 6.0618 0.446793 6.66289C0.994653 8.13861 1.81306 9.50627 3.03391 10.9719C4.51516 12.738 6.2974 14.1327 8.33327 15.1154C9.1111 15.4834 10.1493 15.9191 11.3093 15.9934C11.3803 15.9967 11.4547 16.0001 11.5224 16.0001C12.3036 16.0001 12.9596 15.7198 13.4737 15.1626C13.4771 15.1559 13.4838 15.1525 13.4872 15.1458C13.6631 14.933 13.866 14.7405 14.079 14.5345C14.2245 14.3961 14.3733 14.2509 14.5187 14.0989C14.8535 13.7511 15.0293 13.3458 15.0293 12.9305C15.0293 12.5117 14.8501 12.1099 14.5085 11.7722L12.6519 9.9115ZM13.8626 13.4674C13.8592 13.4674 13.8592 13.4708 13.8626 13.4674C13.7307 13.6092 13.5954 13.7376 13.45 13.8794C13.2302 14.0888 13.007 14.3083 12.7973 14.5548C12.4557 14.9195 12.0533 15.0917 11.5257 15.0917C11.475 15.0917 11.4209 15.0917 11.3702 15.0883C10.3658 15.0242 9.43237 14.6325 8.73233 14.2981C6.8182 13.3729 5.13742 12.0592 3.74072 10.3944C2.5875 9.00648 1.81644 7.72325 1.30578 6.34546C0.991271 5.5046 0.876288 4.84948 0.927016 4.2315C0.960834 3.83639 1.11302 3.50883 1.39371 3.22855L2.54692 2.07701C2.71263 1.92167 2.88849 1.83725 3.06096 1.83725C3.27402 1.83725 3.4465 1.96557 3.55471 2.07363C3.5581 2.07701 3.56148 2.08039 3.56486 2.08377C3.77115 2.27625 3.9673 2.47549 4.17359 2.68824C4.27843 2.7963 4.38665 2.90436 4.49487 3.0158L5.41811 3.9377C5.77659 4.29566 5.77659 4.6266 5.41811 4.98455C5.32004 5.08248 5.22535 5.18041 5.12727 5.27497C4.8432 5.56539 4.57265 5.83554 4.27843 6.09894C4.27167 6.1057 4.2649 6.10907 4.26152 6.11583C3.97068 6.40624 4.02479 6.68991 4.08566 6.88239C4.08905 6.89252 4.09243 6.90265 4.09581 6.91278C4.33592 7.49362 4.67411 8.04068 5.18815 8.69243L5.19153 8.69581C6.12492 9.84396 7.10904 10.7389 8.19461 11.4244C8.33327 11.5122 8.47531 11.5831 8.61058 11.6506C8.73233 11.7114 8.84731 11.7688 8.94538 11.8296C8.95891 11.8364 8.97244 11.8465 8.98597 11.8532C9.10095 11.9106 9.20917 11.9377 9.32077 11.9377C9.60146 11.9377 9.77732 11.7621 9.83481 11.7047L10.9914 10.5497C11.1064 10.4349 11.289 10.2965 11.5021 10.2965C11.7117 10.2965 11.8842 10.4282 11.9891 10.543C11.9924 10.5464 11.9924 10.5464 11.9958 10.5497L13.8592 12.4104C14.2075 12.7549 14.2075 13.1095 13.8626 13.4674Z" fill="#505050" stroke="#505050" stroke-width="0.05"/>
<path d="M8.64768 3.80598C9.53373 3.95456 10.3386 4.3733 10.9812 5.01492C11.6237 5.65654 12.0397 6.46025 12.1919 7.34501C12.2291 7.56789 12.4218 7.72322 12.6416 7.72322C12.6687 7.72322 12.6924 7.71985 12.7194 7.71647C12.9697 7.67595 13.1354 7.43956 13.0948 7.18967C12.9122 6.11918 12.4049 5.14325 11.6305 4.36993C10.856 3.59661 9.87867 3.09007 8.80663 2.90771C8.55637 2.86719 8.32302 3.03266 8.27906 3.27918C8.23509 3.52569 8.39742 3.76546 8.64768 3.80598Z" fill="#505050" stroke="#505050" stroke-width="0.05"/>
<path d="M15.9929 7.05799C15.692 5.29523 14.86 3.69119 13.5817 2.41471C12.3033 1.13822 10.697 0.307498 8.93163 0.00695023C8.68476 -0.0369499 8.45141 0.131897 8.40745 0.378413C8.36686 0.628306 8.53257 0.861315 8.78283 0.905215C10.3588 1.17199 11.7961 1.9183 12.9391 3.05632C14.0822 4.19773 14.8262 5.63293 15.0934 7.20658C15.1306 7.42946 15.3233 7.58479 15.5432 7.58479C15.5702 7.58479 15.5939 7.58142 15.6209 7.57804C15.8678 7.54089 16.0369 7.30451 15.9929 7.05799Z" fill="#505050" stroke="#505050" stroke-width="0.05"/>
</g>
<defs>
<clipPath id="clip0">
<rect width="16" height="16" fill="white"/>
</clipPath>
</defs>
</svg>
