<svg width="16" height="16" viewBox="0 0 16 16" fill="none" xmlns="http://www.w3.org/2000/svg">
<g clip-path="url(#clip0)">
<path d="M7.5783 15.521L0.49066 8.94099C0.258578 8.72541 0.258968 8.37637 0.491861 8.16115C0.724723 7.94609 1.10194 7.94665 1.3342 8.16226L8 14.3506L14.6658 8.16204C14.898 7.94645 15.275 7.9459 15.5079 8.16093C15.6247 8.26882 15.683 8.41016 15.683 8.5515C15.683 8.69248 15.6251 8.83327 15.5091 8.94097L8.42166 15.521C8.31008 15.6248 8.15822 15.6831 8 15.6831C7.84177 15.6831 7.69009 15.6246 7.5783 15.521Z" fill="#505050"/>
<path fill-rule="evenodd" clip-rule="evenodd" d="M0.276795 7.92862C-0.0915754 8.26904 -0.0923525 8.83219 0.274996 9.17342L7.3627 15.7535C7.5353 15.9135 7.76494 16.0002 8.00003 16.0002C8.23465 16.0002 8.46457 15.9141 8.63737 15.7534C8.63744 15.7534 8.6373 15.7535 8.63737 15.7534L15.7248 9.17346C15.9049 9.00616 16 8.78135 16 8.55173C16 8.32143 15.9043 8.09589 15.7231 7.9284C15.3685 7.60103 14.8038 7.60179 14.4502 7.92997L8.00002 13.9184L1.54986 7.93022C1.19628 7.60198 0.63134 7.60118 0.276795 7.92862ZM0.706991 8.39413C0.818178 8.29152 1.0077 8.2918 1.11861 8.39475C1.11861 8.39475 1.11861 8.39475 1.11861 8.39475L8.00003 14.7833L14.8814 8.39456C14.9923 8.2916 15.1816 8.29132 15.2929 8.39391C15.3451 8.4422 15.3661 8.49935 15.3661 8.55173C15.3661 8.60405 15.3453 8.66085 15.2935 8.70893C15.2935 8.70895 15.2935 8.70891 15.2935 8.70893L8.20606 15.2889C8.15572 15.3358 8.08175 15.3664 8.00003 15.3664C7.91867 15.3664 7.84482 15.3361 7.79383 15.2888L0.706389 8.70902C0.706366 8.709 0.706412 8.70904 0.706389 8.70902C0.609666 8.61911 0.609674 8.48413 0.706991 8.39413Z" fill="#505050"/>
<path d="M7.5783 7.83762L0.49066 1.25765C0.258578 1.04206 0.258968 0.693022 0.491861 0.477798C0.724723 0.262741 1.10194 0.263297 1.3342 0.47891L8 6.66723L14.6658 0.478687C14.898 0.263102 15.275 0.262546 15.5079 0.477576C15.6247 0.585466 15.683 0.726809 15.683 0.868153C15.683 1.00913 15.6251 1.14992 15.5091 1.25762L8.42166 7.83762C8.31008 7.94146 8.15822 7.99972 8 7.99972C7.84177 7.99972 7.69009 7.94129 7.5783 7.83762Z" fill="#505050"/>
<path fill-rule="evenodd" clip-rule="evenodd" d="M0.276795 0.24527C-0.0915754 0.585694 -0.0923525 1.14884 0.274996 1.49007L7.3627 8.07012C7.5353 8.23017 7.76494 8.31688 8.00003 8.31688C8.23465 8.31688 8.46457 8.23076 8.63737 8.07007C8.63744 8.07 8.6373 8.07014 8.63737 8.07007L15.7248 1.49011C15.9049 1.32281 16 1.098 16 0.86838C16 0.638077 15.9043 0.412541 15.7231 0.245048C15.3685 -0.0823244 14.8038 -0.0815615 14.4502 0.246616L8.00002 6.235L1.54986 0.246872C1.19628 -0.0813703 0.63134 -0.0821671 0.276795 0.24527ZM0.706991 0.710782C0.818178 0.608175 1.0077 0.608448 1.11861 0.711402C1.11861 0.711404 1.11861 0.7114 1.11861 0.711402L8.00003 7.09991L14.8814 0.711214C14.9923 0.608253 15.1816 0.60797 15.2929 0.710559C15.3451 0.758846 15.3661 0.815997 15.3661 0.86838C15.3661 0.920698 15.3453 0.9775 15.2935 1.02558C15.2935 1.0256 15.2935 1.02556 15.2935 1.02558L8.20606 7.60559C8.15572 7.65244 8.08175 7.68302 8.00003 7.68302C7.91867 7.68302 7.84482 7.65275 7.79383 7.60546L0.706389 1.02567C0.706366 1.02565 0.706412 1.02569 0.706389 1.02567C0.609666 0.93576 0.609674 0.800785 0.706991 0.710782Z" fill="#505050"/>
</g>
<defs>
<clipPath id="clip0">
<rect width="16" height="16" fill="white" transform="translate(0 16) rotate(-90)"/>
</clipPath>
</defs>
</svg>
