<svg width="16" height="16" viewBox="0 0 16 16" fill="none" xmlns="http://www.w3.org/2000/svg">
<path d="M8.00102 0.148743C3.66815 0.148743 0.148865 3.66802 0.148865 8.0009C0.148865 12.3338 3.66815 15.8531 8.00102 15.8531C12.3339 15.8531 15.8532 12.3338 15.8532 8.0009C15.8532 3.66802 12.3339 0.148743 8.00102 0.148743ZM8.00102 15.1719C4.04656 15.1719 0.830016 11.9554 0.830016 8.0009C0.830016 4.04644 4.04656 0.829894 8.00102 0.829894C11.9555 0.829894 15.172 4.04644 15.172 8.0009C15.172 11.9554 11.9555 15.1719 8.00102 15.1719Z" fill="#505050"/>
<path fill-rule="evenodd" clip-rule="evenodd" d="M0.098877 8.0006C0.098877 3.64028 3.64041 0.0987549 8.00073 0.0987549C12.361 0.0987549 15.9026 3.64028 15.9026 8.0006C15.9026 12.3609 12.361 15.9025 8.00073 15.9025C3.64041 15.9025 0.098877 12.3609 0.098877 8.0006ZM8.00073 0.198134C3.69529 0.198134 0.198256 3.69517 0.198256 8.0006C0.198256 12.306 3.69529 15.8031 8.00073 15.8031C12.3062 15.8031 15.8032 12.306 15.8032 8.0006C15.8032 3.69517 12.3062 0.198134 8.00073 0.198134ZM8.00073 0.879285C4.07371 0.879285 0.879407 4.07359 0.879407 8.0006C0.879407 11.9276 4.07371 15.1219 8.00073 15.1219C11.9277 15.1219 15.122 11.9276 15.122 8.0006C15.122 4.07359 11.9277 0.879285 8.00073 0.879285ZM0.780028 8.0006C0.780028 4.0187 4.01882 0.779906 8.00073 0.779906C11.9826 0.779906 15.2214 4.0187 15.2214 8.0006C15.2214 11.9825 11.9826 15.2213 8.00073 15.2213C4.01882 15.2213 0.780028 11.9825 0.780028 8.0006Z" fill="#505050"/>
<path fill-rule="evenodd" clip-rule="evenodd" d="M0.0499878 8.0003C0.0499878 3.61321 3.61321 0.0499878 8.0003 0.0499878C12.3874 0.0499878 15.9506 3.61321 15.9506 8.0003C15.9506 12.3874 12.3874 15.9506 8.0003 15.9506C3.61321 15.9506 0.0499878 12.3874 0.0499878 8.0003ZM8.0003 0.246292C3.72163 0.246292 0.246292 3.72163 0.246292 8.0003C0.246292 12.279 3.72163 15.7543 8.0003 15.7543C12.279 15.7543 15.7543 12.279 15.7543 8.0003C15.7543 3.72163 12.279 0.246292 8.0003 0.246292ZM8.0003 0.927443C4.10005 0.927443 0.927443 4.10005 0.927443 8.0003C0.927443 11.9006 4.10005 15.0732 8.0003 15.0732C11.9006 15.0732 15.0732 11.9006 15.0732 8.0003C15.0732 4.10005 11.9006 0.927443 8.0003 0.927443ZM0.731139 8.0003C0.731139 3.99163 3.99163 0.731139 8.0003 0.731139C12.009 0.731139 15.2695 3.99163 15.2695 8.0003C15.2695 12.009 12.009 15.2695 8.0003 15.2695C3.99163 15.2695 0.731139 12.009 0.731139 8.0003Z" fill="#505050"/>
<path fill-rule="evenodd" clip-rule="evenodd" d="M0 8C0 3.58547 3.58547 0 8 0C12.4145 0 16 3.58547 16 8C16 12.4145 12.4145 16 8 16C3.58547 16 0 12.4145 0 8ZM8 0.0993789C3.64036 0.0993789 0.0993789 3.64036 0.0993789 8C0.0993789 12.3596 3.64036 15.9006 8 15.9006C12.3596 15.9006 15.9006 12.3596 15.9006 8C15.9006 3.64036 12.3596 0.0993789 8 0.0993789ZM8 0.295683C3.74877 0.295683 0.295683 3.74877 0.295683 8C0.295683 12.2512 3.74877 15.7043 8 15.7043C12.2512 15.7043 15.7043 12.2512 15.7043 8C15.7043 3.74877 12.2512 0.295683 8 0.295683ZM0.196304 8C0.196304 3.69389 3.69389 0.196304 8 0.196304C12.3061 0.196304 15.8037 3.69389 15.8037 8C15.8037 12.3061 12.3061 15.8037 8 15.8037C3.69389 15.8037 0.196304 12.3061 0.196304 8ZM0.681151 8C0.681151 3.96389 3.96389 0.681151 8 0.681151C12.0361 0.681151 15.3189 3.96389 15.3189 8C15.3189 12.0361 12.0361 15.3189 8 15.3189C3.96389 15.3189 0.681151 12.0361 0.681151 8ZM8 0.78053C4.01877 0.78053 0.78053 4.01877 0.78053 8C0.78053 11.9812 4.01877 15.2195 8 15.2195C11.9812 15.2195 15.2195 11.9812 15.2195 8C15.2195 4.01877 11.9812 0.78053 8 0.78053ZM8 0.976834C4.12719 0.976834 0.976834 4.12719 0.976834 8C0.976834 11.8728 4.12719 15.0232 8 15.0232C11.8728 15.0232 15.0232 11.8728 15.0232 8C15.0232 4.12719 11.8728 0.976834 8 0.976834ZM0.877455 8C0.877455 4.07231 4.07231 0.877455 8 0.877455C11.9277 0.877455 15.1225 4.07231 15.1225 8C15.1225 11.9277 11.9277 15.1225 8 15.1225C4.07231 15.1225 0.877455 11.9277 0.877455 8Z" fill="#505050"/>
<path d="M12.0873 6.29711H9.70324V3.91309C9.70324 3.72388 9.55187 3.57251 9.36266 3.57251H6.63806C6.44885 3.57251 6.29748 3.72388 6.29748 3.91309V6.29711H3.91345C3.72424 6.29711 3.57288 6.44848 3.57288 6.63769V9.36229C3.57288 9.5515 3.72424 9.70287 3.91345 9.70287H6.29748V12.0869C6.29748 12.2761 6.44885 12.4275 6.63806 12.4275H9.36266C9.55187 12.4275 9.70324 12.2761 9.70324 12.0869V9.70287H12.0873C12.2765 9.70287 12.4278 9.5515 12.4278 9.36229V6.63769C12.4089 6.44848 12.2576 6.29711 12.0873 6.29711ZM11.7656 9.02172H11.7467H9.36266C9.17345 9.02172 9.02208 9.17309 9.02208 9.36229V11.7463H6.97863V9.36229C6.97863 9.17309 6.82726 9.02172 6.63806 9.02172H4.25403V6.97826H6.63806C6.82726 6.97826 6.97863 6.8269 6.97863 6.63769V4.25366H9.041V6.63769C9.041 6.8269 9.19237 6.97826 9.38158 6.97826H11.7656V9.02172Z" fill="#505050"/>
<path fill-rule="evenodd" clip-rule="evenodd" d="M6.24752 3.91309C6.24752 3.69644 6.42114 3.52283 6.63779 3.52283H9.36239C9.57904 3.52283 9.75266 3.69644 9.75266 3.91309V6.24743H12.087C12.2871 6.24743 12.456 6.42269 12.477 6.63275L12.4775 6.6377L12.4773 9.3623C12.4773 9.57895 12.3036 9.75257 12.087 9.75257H9.75266V12.0869C9.75266 12.3036 9.57904 12.4772 9.36239 12.4772H6.63779C6.42114 12.4772 6.24752 12.3036 6.24752 12.0869V9.75257H3.91318C3.69653 9.75257 3.52292 9.57895 3.52292 9.3623V6.6377C3.52292 6.42105 3.69653 6.24743 3.91318 6.24743H6.24752V3.91309ZM6.63779 3.62221C6.47602 3.62221 6.3469 3.75133 6.3469 3.91309V6.34681H3.91318C3.75142 6.34681 3.6223 6.47593 3.6223 6.6377V9.3623C3.6223 9.52407 3.75142 9.65319 3.91318 9.65319H6.3469V12.0869C6.3469 12.2487 6.47602 12.3778 6.63779 12.3778H9.36239C9.52416 12.3778 9.65328 12.2487 9.65328 12.0869V9.65319H12.087C12.2488 9.65319 12.3779 9.52407 12.3779 9.3623V6.64026C12.36 6.47308 12.2268 6.34681 12.087 6.34681H9.65328V3.91309C9.65328 3.75133 9.52416 3.62221 9.36239 3.62221H6.63779ZM6.92867 4.20398H9.09043V6.6377C9.09043 6.79946 9.21955 6.92858 9.38131 6.92858H11.815V9.07141H9.36239C9.20063 9.07141 9.07151 9.20054 9.07151 9.3623V11.796H6.92867V9.3623C6.92867 9.20054 6.79955 9.07141 6.63779 9.07141H4.20407V6.92858H6.63779C6.79955 6.92858 6.92867 6.79946 6.92867 6.6377V4.20398ZM7.02805 4.30336V6.6377C7.02805 6.85435 6.85444 7.02796 6.63779 7.02796H4.30345V8.97204H6.63779C6.85444 8.97204 7.02805 9.14565 7.02805 9.3623V11.6966H8.97213V9.3623C8.97213 9.14565 9.14574 8.97204 9.36239 8.97204H11.7157V7.02796H9.38131C9.16466 7.02796 8.99105 6.85435 8.99105 6.6377V4.30336H7.02805Z" fill="#505050"/>
<path fill-rule="evenodd" clip-rule="evenodd" d="M6.19897 3.91309C6.19897 3.66968 6.39428 3.47437 6.6377 3.47437H9.3623C9.60572 3.47437 9.80103 3.66968 9.80103 3.91309V6.19897H12.0869C12.3162 6.19897 12.5021 6.39754 12.5251 6.62793L12.5261 6.6377L12.5256 9.3623C12.5256 9.60572 12.3303 9.80103 12.0869 9.80103H9.80103V12.0869C9.80103 12.3303 9.60572 12.5256 9.3623 12.5256H6.6377C6.39428 12.5256 6.19897 12.3303 6.19897 12.0869V9.80103H3.91309C3.66968 9.80103 3.47437 9.60572 3.47437 9.3623V6.6377C3.47437 6.39428 3.66968 6.19897 3.91309 6.19897H6.19897V3.91309ZM6.6377 3.67067C6.5027 3.67067 6.39527 3.77809 6.39527 3.91309V6.39527H3.91309C3.77809 6.39527 3.67067 6.5027 3.67067 6.6377V9.3623C3.67067 9.4973 3.77809 9.60472 3.91309 9.60472H6.39527V12.0869C6.39527 12.2219 6.5027 12.3293 6.6377 12.3293H9.3623C9.4973 12.3293 9.60472 12.2219 9.60472 12.0869V9.60472H12.0869C12.2219 9.60472 12.3293 9.4973 12.3293 9.3623V6.64292C12.3126 6.49731 12.1971 6.39527 12.0869 6.39527H9.60472V3.91309C9.60472 3.77809 9.4973 3.67067 9.3623 3.67067H6.6377ZM6.88012 4.15552H9.1388V6.6377C9.1388 6.7727 9.24622 6.88012 9.38122 6.88012H11.8634V9.11988H9.3623C9.2273 9.11988 9.11988 9.2273 9.11988 9.3623V11.8445H6.88012V9.3623C6.88012 9.2273 6.7727 9.11988 6.6377 9.11988H4.15552V6.88012H6.6377C6.7727 6.88012 6.88012 6.7727 6.88012 6.6377V4.15552ZM7.07642 4.35182V6.6377C7.07642 6.88111 6.88111 7.07642 6.6377 7.07642H4.35182V8.92357H6.6377C6.88111 8.92357 7.07642 9.11889 7.07642 9.3623V11.6482H8.92357V9.3623C8.92357 9.11889 9.11888 8.92357 9.3623 8.92357H11.6671V7.07642H9.38122C9.13781 7.07642 8.94249 6.88111 8.94249 6.6377V4.35182H7.07642Z" fill="#505050"/>
<path fill-rule="evenodd" clip-rule="evenodd" d="M6.1495 3.9131C6.1495 3.64224 6.36706 3.42468 6.63792 3.42468H9.36252C9.63338 3.42468 9.85094 3.64224 9.85094 3.9131V6.14929H12.0871C12.3465 6.14929 12.5497 6.372 12.5748 6.62299L12.5763 6.63771L12.5755 9.36232C12.5755 9.63317 12.358 9.85073 12.0871 9.85073H9.85094V12.0869C9.85094 12.3578 9.63338 12.5753 9.36252 12.5753H6.63792C6.36706 12.5753 6.1495 12.3578 6.1495 12.0869V9.85073H3.91331C3.64245 9.85073 3.4249 9.63317 3.4249 9.36231V6.6377C3.4249 6.36684 3.64245 6.14929 3.91331 6.14929H6.1495V3.9131ZM6.63792 3.52406C6.42194 3.52406 6.24888 3.69713 6.24888 3.9131V6.24867H3.91331C3.69734 6.24867 3.52428 6.42173 3.52428 6.6377V9.36231C3.52428 9.57828 3.69734 9.75135 3.91331 9.75135H6.24888V12.0869C6.24888 12.3029 6.42194 12.476 6.63792 12.476H9.36252C9.5785 12.476 9.75156 12.3029 9.75156 12.0869V9.75135H12.0871C12.3031 9.75135 12.4762 9.57828 12.4762 9.3623L12.4767 6.64017L12.4759 6.63288C12.4549 6.42309 12.2863 6.24867 12.0871 6.24867H9.75156V3.9131C9.75156 3.69713 9.5785 3.52406 9.36252 3.52406H6.63792ZM6.63792 3.72037C6.53036 3.72037 6.44518 3.80554 6.44518 3.9131V6.44497H3.91331C3.80576 6.44497 3.72058 6.53015 3.72058 6.6377V9.36231C3.72058 9.46987 3.80576 9.55504 3.91331 9.55504H6.44518V12.0869C6.44518 12.1945 6.53036 12.2796 6.63792 12.2796H9.36252C9.47008 12.2796 9.55526 12.1945 9.55526 12.0869V9.55504H12.0871C12.1947 9.55504 12.2799 9.46987 12.2799 9.36231V6.64589C12.2645 6.52282 12.1675 6.44497 12.0871 6.44497H9.55526V3.9131C9.55526 3.80554 9.47008 3.72037 9.36252 3.72037H6.63792ZM6.3458 3.9131C6.3458 3.75066 6.47547 3.62099 6.63792 3.62099H9.36252C9.52497 3.62099 9.65463 3.75066 9.65463 3.9131V6.34559H12.0871C12.2265 6.34559 12.3598 6.47068 12.3789 6.63726L12.3796 6.64293L12.3792 9.36231C12.3792 9.52475 12.2496 9.65442 12.0871 9.65442H9.65463V12.0869C9.65463 12.2494 9.52497 12.379 9.36252 12.379H6.63792C6.47547 12.379 6.3458 12.2494 6.3458 12.0869V9.65442H3.91331C3.75087 9.65442 3.6212 9.52475 3.6212 9.36231V6.6377C3.6212 6.47526 3.75087 6.34559 3.91331 6.34559H6.3458V3.9131ZM6.83065 4.10583H9.18871V6.6377C9.18871 6.74526 9.27388 6.83044 9.38144 6.83044H11.9133V9.16957H9.36252C9.25496 9.16957 9.16979 9.25475 9.16979 9.36231V11.8942H6.83065V9.36231C6.83065 9.25475 6.74548 9.16957 6.63792 9.16957H4.10605V6.83044H6.63792C6.74548 6.83044 6.83065 6.74526 6.83065 6.6377V4.10583ZM6.93003 4.20521V6.6377C6.93003 6.80015 6.80036 6.92982 6.63792 6.92982H4.20543V9.0702H6.63792C6.80036 9.0702 6.93003 9.19986 6.93003 9.36231V11.7948H9.07041V9.36231C9.07041 9.19986 9.20008 9.0702 9.36252 9.0702H11.8139V6.92982H9.38144C9.219 6.92982 9.08933 6.80015 9.08933 6.6377V4.20521H6.93003ZM7.02696 4.30214H8.9924V6.6377C8.9924 6.85368 9.16547 7.02674 9.38144 7.02674H11.717V8.97327H9.36252C9.14655 8.97327 8.97348 9.14633 8.97348 9.36231V11.6979H7.02696V9.36231C7.02696 9.14633 6.85389 8.97327 6.63792 8.97327H4.30235V7.02674H6.63792C6.85389 7.02674 7.02696 6.85368 7.02696 6.6377V4.30214ZM7.12633 4.40152V6.6377C7.12633 6.90856 6.90878 7.12612 6.63792 7.12612H4.40173V8.87389H6.63792C6.90878 8.87389 7.12633 9.09145 7.12633 9.36231V11.5985H8.87411V9.36231C8.87411 9.09145 9.09166 8.87389 9.36252 8.87389H11.6176V7.12612H9.38144C9.11058 7.12612 8.89303 6.90856 8.89303 6.6377V4.40152H7.12633Z" fill="#505050"/>
</svg>
