<svg width="13" height="17" viewBox="0 0 13 17" fill="none" xmlns="http://www.w3.org/2000/svg">
<g clip-path="url(#clip0)">
<path d="M6.50014 12.5105C6.78826 12.5105 7.02176 12.3005 7.02176 12.0417V10.1C7.02176 9.84106 6.78826 9.63123 6.50014 9.63123C6.21216 9.63123 5.97852 9.84106 5.97852 10.1V12.0417C5.97852 12.3005 6.21216 12.5105 6.50014 12.5105Z" fill="#505050"/>
<path d="M12.4782 5.6416H10.0095V3.35815C10.0095 1.7821 8.43511 0.5 6.49993 0.5C4.5649 0.5 2.99051 1.7821 2.99051 3.35815V5.6416H0.521625C0.233509 5.6416 0 5.85156 0 6.11035V12.1051C0 14.5284 2.19395 16.5 4.89064 16.5H8.10936C10.8061 16.5 13 14.5284 13 12.1051V6.11035C12.9999 5.85156 12.7664 5.6416 12.4782 5.6416ZM4.03376 3.35815C4.03376 2.29907 5.14004 1.4375 6.49993 1.4375C7.85982 1.4375 8.96624 2.29907 8.96624 3.35815V5.6416H4.03376V3.35815ZM11.9566 12.1051C11.9566 14.0115 10.2308 15.5625 8.10923 15.5625H4.89064C2.76923 15.5625 1.04325 14.0115 1.04325 12.1051V6.5791H11.9566V12.1051Z" fill="#505050"/>
</g>
<defs>
<clipPath id="clip0">
<rect width="13" height="16" fill="white" transform="translate(0 0.5)"/>
</clipPath>
</defs>
</svg>
