<svg width="16" height="17" viewBox="0 0 16 17" fill="none" xmlns="http://www.w3.org/2000/svg">
<g clip-path="url(#clip0)">
<path d="M14.2138 12.4244H12.2516C12.0711 12.4244 11.9245 12.2779 11.9245 12.0973C11.9245 11.9168 12.0711 11.7703 12.2516 11.7703H14.2138C14.7548 11.7703 15.195 11.3301 15.195 10.7892V6.21059C15.195 5.66966 14.7548 5.22946 14.2138 5.22946H1.78624C1.24531 5.22946 0.805116 5.66966 0.805116 6.21059V10.7892C0.805116 11.3301 1.24531 11.7703 1.78624 11.7703H3.74849C3.92902 11.7703 4.07554 11.9168 4.07554 12.0973C4.07554 12.2779 3.92902 12.4244 3.74849 12.4244H1.78624C0.88426 12.4244 0.151031 11.6905 0.151031 10.7892V6.21059C0.151031 5.30926 0.88426 4.57538 1.78624 4.57538H14.2138C15.1158 4.57538 15.8491 5.30926 15.8491 6.21059V10.7892C15.8491 11.6905 15.1158 12.4244 14.2138 12.4244Z" fill="#505050"/>
<path fill-rule="evenodd" clip-rule="evenodd" d="M1.78615 4.72638C0.967574 4.72638 0.301885 5.39265 0.301885 6.21065V10.7892C0.301885 11.6072 0.967574 12.2735 1.78615 12.2735H3.74841C3.84557 12.2735 3.92451 12.1946 3.92451 12.0974C3.92451 12.0002 3.84557 11.9213 3.74841 11.9213H1.78615C1.16186 11.9213 0.654084 11.4135 0.654084 10.7892V6.21065C0.654084 5.58636 1.16186 5.07858 1.78615 5.07858H14.2138C14.838 5.07858 15.3458 5.58636 15.3458 6.21065V10.7892C15.3458 11.4135 14.838 11.9213 14.2138 11.9213H12.2515C12.1543 11.9213 12.0754 12.0002 12.0754 12.0974C12.0754 12.1946 12.1543 12.2735 12.2515 12.2735H14.2138C15.0323 12.2735 15.698 11.6072 15.698 10.7892V6.21065C15.698 5.39265 15.0323 4.72638 14.2138 4.72638H1.78615ZM0 6.21065C0 5.226 0.800769 4.4245 1.78615 4.4245H14.2138C15.1991 4.4245 15.9999 5.226 15.9999 6.21065V10.7892C15.9999 11.7739 15.1991 12.5754 14.2138 12.5754H12.2515C11.9876 12.5754 11.7735 12.3613 11.7735 12.0974C11.7735 11.8335 11.9876 11.6194 12.2515 11.6194H14.2138C14.6713 11.6194 15.0439 11.2468 15.0439 10.7892V6.21065C15.0439 5.75309 14.6713 5.38047 14.2138 5.38047H1.78615C1.32859 5.38047 0.955969 5.75309 0.955969 6.21065V10.7892C0.955969 11.2468 1.32859 11.6194 1.78615 11.6194H3.74841C4.0123 11.6194 4.22639 11.8335 4.22639 12.0974C4.22639 12.3613 4.0123 12.5754 3.74841 12.5754H1.78615C0.800769 12.5754 0 11.7739 0 10.7892V6.21065Z" fill="#505050"/>
<path d="M9.87237 13.779H5.94786C5.76733 13.779 5.62082 13.6325 5.62082 13.452C5.62082 13.2715 5.76733 13.1249 5.94786 13.1249H9.87237C10.0529 13.1249 10.1994 13.2715 10.1994 13.452C10.1994 13.6325 10.0529 13.779 9.87237 13.779Z" fill="#505050"/>
<path fill-rule="evenodd" clip-rule="evenodd" d="M5.94777 13.2759C5.85061 13.2759 5.77167 13.3548 5.77167 13.452C5.77167 13.5491 5.85061 13.6281 5.94777 13.6281H9.87228C9.96944 13.6281 10.0484 13.5491 10.0484 13.452C10.0484 13.3548 9.96944 13.2759 9.87228 13.2759H5.94777ZM5.46979 13.452C5.46979 13.1881 5.68388 12.974 5.94777 12.974H9.87228C10.1362 12.974 10.3503 13.1881 10.3503 13.452C10.3503 13.7159 10.1362 13.93 9.87228 13.93H5.94777C5.68388 13.93 5.46979 13.7159 5.46979 13.452Z" fill="#505050"/>
<path d="M9.87237 11.8709H5.94786C5.76733 11.8709 5.62082 11.7244 5.62082 11.5439C5.62082 11.3634 5.76733 11.2169 5.94786 11.2169H9.87237C10.0529 11.2169 10.1994 11.3634 10.1994 11.5439C10.1994 11.7244 10.0529 11.8709 9.87237 11.8709Z" fill="#505050"/>
<path fill-rule="evenodd" clip-rule="evenodd" d="M5.94777 11.3679C5.85061 11.3679 5.77167 11.4468 5.77167 11.544C5.77167 11.6411 5.85061 11.7201 5.94777 11.7201H9.87228C9.96944 11.7201 10.0484 11.6411 10.0484 11.544C10.0484 11.4468 9.96944 11.3679 9.87228 11.3679H5.94777ZM5.46979 11.544C5.46979 11.2801 5.68388 11.066 5.94777 11.066H9.87228C10.1362 11.066 10.3503 11.2801 10.3503 11.544C10.3503 11.8078 10.1362 12.0219 9.87228 12.0219H5.94777C5.68388 12.0219 5.46979 11.8078 5.46979 11.544Z" fill="#505050"/>
<path d="M12.251 5.22953C12.0704 5.22953 11.9239 5.08301 11.9239 4.90249V2.28615C11.9239 1.74522 11.4837 1.30502 10.9428 1.30502H5.05605C4.51512 1.30502 4.07492 1.74522 4.07492 2.28615V4.90249C4.07492 5.08301 3.92841 5.22953 3.74788 5.22953C3.56735 5.22953 3.42084 5.08301 3.42084 4.90249V2.28615C3.42084 1.38482 4.15407 0.65094 5.05605 0.65094H10.9428C11.8448 0.65094 12.578 1.38482 12.578 2.28615V4.90249C12.578 5.08301 12.4315 5.22953 12.251 5.22953Z" fill="#505050"/>
<path fill-rule="evenodd" clip-rule="evenodd" d="M5.05596 0.801885C4.23738 0.801885 3.57169 1.46815 3.57169 2.28615V4.90249C3.57169 4.99965 3.65063 5.07859 3.74779 5.07859C3.84495 5.07859 3.92389 4.99965 3.92389 4.90249V2.28615C3.92389 1.66186 4.43167 1.15408 5.05596 1.15408H10.9427C11.567 1.15408 12.0748 1.66186 12.0748 2.28615V4.90249C12.0748 4.99965 12.1537 5.07859 12.2509 5.07859C12.3481 5.07859 12.427 4.99966 12.427 4.90249V2.28615C12.427 1.46815 11.7613 0.801885 10.9427 0.801885H5.05596ZM3.26981 2.28615C3.26981 1.3015 4.07057 0.5 5.05596 0.5H10.9427C11.9281 0.5 12.7289 1.3015 12.7289 2.28615V4.90249C12.7289 5.16638 12.5148 5.38048 12.2509 5.38048C11.987 5.38048 11.7729 5.16638 11.7729 4.90249V2.28615C11.7729 1.82859 11.4003 1.45597 10.9427 1.45597H5.05596C4.59839 1.45597 4.22578 1.82859 4.22578 2.28615V4.90249C4.22578 5.16638 4.01168 5.38048 3.74779 5.38048C3.4839 5.38048 3.26981 5.16638 3.26981 4.90249V2.28615Z" fill="#505050"/>
<path d="M10.9428 16.3491H5.05605C4.15407 16.3491 3.42084 15.6152 3.42084 14.7139V9.48122C3.42084 9.30069 3.56735 9.15417 3.74788 9.15417H12.251C12.4315 9.15417 12.578 9.30069 12.578 9.48122V14.7139C12.578 15.6152 11.8448 16.3491 10.9428 16.3491ZM4.07492 9.80826V14.7139C4.07492 15.2548 4.51512 15.695 5.05605 15.695H10.9428C11.4837 15.695 11.9239 15.2548 11.9239 14.7139V9.80826H4.07492Z" fill="#505050"/>
<path fill-rule="evenodd" clip-rule="evenodd" d="M3.74779 9.305C3.65063 9.305 3.57169 9.38393 3.57169 9.4811V14.7138C3.57169 15.5318 4.23738 16.198 5.05596 16.198H10.9427C11.7613 16.198 12.427 15.5318 12.427 14.7138V9.4811C12.427 9.38393 12.3481 9.305 12.2509 9.305H3.74779ZM3.26981 9.4811C3.26981 9.21721 3.4839 9.00311 3.74779 9.00311H12.2509C12.5148 9.00311 12.7289 9.21721 12.7289 9.4811V14.7138C12.7289 15.6984 11.9281 16.4999 10.9427 16.4999H5.05596C4.07057 16.4999 3.26981 15.6984 3.26981 14.7138V9.4811ZM3.92389 9.6572H12.0748V14.7138C12.0748 15.3381 11.567 15.8458 10.9427 15.8458H5.05596C4.43167 15.8458 3.92389 15.3381 3.92389 14.7138V9.6572ZM4.22578 9.95908V14.7138C4.22578 15.1713 4.59839 15.544 5.05596 15.544H10.9427C11.4003 15.544 11.7729 15.1713 11.7729 14.7138V9.95908H4.22578Z" fill="#505050"/>
</g>
<defs>
<clipPath id="clip0">
<rect width="16" height="16" fill="white" transform="translate(0 0.5)"/>
</clipPath>
</defs>
</svg>
