<svg width="16" height="17" viewBox="0 0 16 17" fill="none" xmlns="http://www.w3.org/2000/svg">
<g clip-path="url(#clip0)">
<path d="M9.5 5.5C9.776 5.5 10 5.276 10 5V3C10 2.724 9.776 2.5 9.5 2.5C9.224 2.5 9 2.724 9 3V5C9 5.276 9.224 5.5 9.5 5.5ZM14 0.5H2C0.895503 0.5 0 1.3955 0 2.5V14.5C0 15.6045 0.895503 16.5 2 16.5H14C15.1045 16.5 16 15.6045 16 14.5V2.5C16 1.3955 15.1045 0.5 14 0.5ZM4 1.5H12V6C12 6.276 11.776 6.5 11.5 6.5H4.5C4.224 6.5 4 6.276 4 6V1.5ZM15 14.5C15 15.0525 14.5525 15.5 14 15.5H2C1.4475 15.5 1 15.0525 1 14.5V2.5C1 1.9475 1.4475 1.5 2 1.5H3V6.5C3 7.052 3.4475 7.5 4 7.5H12C12.5525 7.5 13 7.052 13 6.5V1.5H14C14.5525 1.5 15 1.948 15 2.5V14.5Z" fill="#505050"/>
</g>
<defs>
<clipPath id="clip0">
<rect width="16" height="16" fill="white" transform="translate(0 0.5)"/>
</clipPath>
</defs>
</svg>
