<svg width="16" height="17" viewBox="0 0 16 17" fill="none" xmlns="http://www.w3.org/2000/svg">
<g clip-path="url(#clip0)">
<path d="M15.0471 6.84614L2.13795 0.638186C1.59411 0.376626 0.979731 0.491688 0.534544 0.938318C0.0893569 1.38502 -0.0968305 2.07326 0.0486694 2.73451L1.31723 8.5L0.0486694 14.2655C-0.0968305 14.9267 0.0893257 15.615 0.534513 16.0617C0.980544 16.5093 1.59507 16.6229 2.13795 16.3618L15.0471 10.1539C15.6349 9.87122 16 9.23749 16 8.5C16 7.76251 15.6349 7.12878 15.0471 6.84614ZM14.6878 9.15028L1.77864 15.3582C1.56154 15.4626 1.32589 15.4185 1.14817 15.2402C0.970481 15.0619 0.899075 14.7979 0.957138 14.5339L2.16523 9.04326H6.82351C7.08241 9.04326 7.29229 8.80002 7.29229 8.49996C7.29229 8.1999 7.08241 7.95667 6.82351 7.95667H2.16526L0.957138 2.46607C0.899075 2.20212 0.970481 1.93809 1.14817 1.7598C1.32586 1.5815 1.56145 1.53739 1.77861 1.64176L14.6878 7.84972C15.0354 8.0169 15.0625 8.38972 15.0625 8.5C15.0625 8.61028 15.0354 8.9831 14.6878 9.15028Z" fill="#505050"/>
</g>
<defs>
<clipPath id="clip0">
<rect width="16" height="16" fill="white" transform="translate(0 0.5)"/>
</clipPath>
</defs>
</svg>
