<svg width="16" height="16" viewBox="0 0 16 16" fill="none" xmlns="http://www.w3.org/2000/svg">
<path d="M8.43284 15.4157C8.42156 15.4219 8.41061 15.428 8.4 15.4338C8.38939 15.428 8.37844 15.4219 8.36716 15.4157C8.19891 15.3225 7.95661 15.1833 7.665 15.001C7.08073 14.6358 6.30381 14.1014 5.52925 13.4237C3.95913 12.0499 2.5 10.1768 2.5 8V2.7465L8.4 0.534L14.3 2.7465V8C14.3 10.1768 12.8409 12.0499 11.2707 13.4237C10.4962 14.1014 9.71927 14.6358 9.135 15.001C8.84339 15.1833 8.60109 15.3225 8.43284 15.4157Z" stroke="#505050" stroke-linecap="round" stroke-linejoin="round"/>
<path d="M7.62645 10.9994C7.47637 10.9994 7.33299 10.9318 7.22714 10.8106L5.16068 8.44219C4.94395 8.19334 4.94675 7.7942 5.1674 7.54915C5.38805 7.30538 5.74254 7.30789 5.95926 7.55673L7.61021 9.44889L11.0258 5.20667C11.2347 4.94837 11.5886 4.93006 11.8165 5.16374C12.0456 5.39806 12.0624 5.7972 11.8546 6.05614L8.04087 10.7929C7.93728 10.9217 7.79166 10.9962 7.63766 11C7.63374 10.9994 7.63037 10.9994 7.62645 10.9994Z" fill="#505050"/>
</svg>
