<svg width="16" height="17" viewBox="0 0 16 17" fill="none" xmlns="http://www.w3.org/2000/svg">
<g clip-path="url(#clip0)">
<path d="M15.5416 8.30027C15.2869 8.30027 15.0832 8.5201 15.0832 8.79489V13.2941C15.0832 14.5178 14.1596 15.5107 13.0289 15.5107H2.97114C1.83701 15.5107 0.916808 14.5141 0.916808 13.2941V8.72161C0.916808 8.44682 0.713073 8.22699 0.458404 8.22699C0.203735 8.22699 0 8.44682 0 8.72161V13.2941C0 15.0637 1.33447 16.4999 2.97114 16.4999H13.0289C14.6689 16.4999 16 15.0601 16 13.2941V8.79489C16 8.52376 15.7963 8.30027 15.5416 8.30027Z" fill="#505050"/>
<path d="M8.3201 0.64651C8.23182 0.55125 8.11297 0.499956 7.99752 0.499956C7.88207 0.499956 7.76323 0.547586 7.67494 0.64651L4.76153 3.79009C4.58156 3.98427 4.58156 4.2957 4.76153 4.48988C4.9415 4.68406 5.23012 4.68406 5.41009 4.48988L7.53912 2.18899L7.53912 12.2243C7.53912 12.499 7.74285 12.7189 7.99752 12.7189C8.25219 12.7189 8.45593 12.499 8.45593 12.2243L8.45593 2.18899L10.5884 4.48988C10.7683 4.68406 11.0569 4.68406 11.2369 4.48988C11.4169 4.2957 11.4169 3.98427 11.2369 3.79009L8.3201 0.64651Z" fill="#505050"/>
</g>
<defs>
<clipPath id="clip0">
<rect width="16" height="16" fill="white" transform="translate(0 0.5)"/>
</clipPath>
</defs>
</svg>
