<svg width="6" height="11" viewBox="0 0 6 11" fill="none" xmlns="http://www.w3.org/2000/svg">
<g clip-path="url(#clip0)">
<rect width="6" height="10" transform="translate(0 0.5)" fill="white"/>
<path d="M0.126589 5.22559L5.26514 0.613083C5.4335 0.462049 5.70608 0.462303 5.87415 0.613865C6.0421 0.765407 6.04167 1.01089 5.87329 1.16205L1.0406 5.50002L5.87346 9.83797C6.04182 9.98914 6.04225 10.2345 5.87433 10.386C5.79007 10.462 5.67969 10.5 5.56931 10.5C5.45921 10.5 5.34927 10.4623 5.26516 10.3868L0.126589 5.77443C0.0455017 5.70181 0 5.60299 0 5.50002C0 5.39705 0.0456319 5.29834 0.126589 5.22559Z" fill="#505050"/>
</g>
<defs>
<clipPath id="clip0">
<rect width="6" height="10" fill="white" transform="translate(0 0.5)"/>
</clipPath>
</defs>
</svg>
