<svg width="16" height="17" viewBox="0 0 16 17" fill="none" xmlns="http://www.w3.org/2000/svg">
<g clip-path="url(#clip0)">
<path d="M8.66585 4.5C8.66585 4.86816 8.36739 5.16663 7.99922 5.16663C7.63106 5.16663 7.3326 4.86816 7.3326 4.5C7.3326 4.13184 7.63106 3.83337 7.99922 3.83337C8.36739 3.83337 8.66585 4.13184 8.66585 4.5Z" fill="#505050"/>
<path d="M7.99922 13.1666C7.72322 13.1666 7.49922 12.9426 7.49922 12.6666V7.5H6.8326C6.55659 7.5 6.3326 7.276 6.3326 7C6.3326 6.724 6.55659 6.5 6.8326 6.5H7.99922C8.27522 6.5 8.49922 6.724 8.49922 7V12.6666C8.49922 12.9426 8.27522 13.1666 7.99922 13.1666Z" fill="#505050"/>
<path d="M8 16.5C3.58862 16.5 0 12.9114 0 8.5C0 4.08862 3.58862 0.5 8 0.5C12.4114 0.5 16 4.08862 16 8.5C16 12.9114 12.4114 16.5 8 16.5ZM8 1.5C4.14001 1.5 1 4.64001 1 8.5C1 12.36 4.14001 15.5 8 15.5C11.86 15.5 15 12.36 15 8.5C15 4.64001 11.86 1.5 8 1.5Z" fill="#505050"/>
<path d="M9.5 13.1666H6.5C6.224 13.1666 6 12.9426 6 12.6666C6 12.3906 6.224 12.1666 6.5 12.1666H9.5C9.776 12.1666 10 12.3906 10 12.6666C10 12.9426 9.776 13.1666 9.5 13.1666Z" fill="#505050"/>
</g>
<defs>
<clipPath id="clip0">
<rect width="16" height="16" fill="white" transform="translate(0 0.5)"/>
</clipPath>
</defs>
</svg>
