<svg width="16" height="17" viewBox="0 0 16 17" fill="none" xmlns="http://www.w3.org/2000/svg">
<g clip-path="url(#clip0)">
<path d="M8.00023 16.4394C3.62253 16.4394 0.0612984 12.8782 0.0612984 8.50045C0.0612984 4.12275 3.62253 0.561523 8.00023 0.561523C12.3779 0.561523 15.9392 4.12275 15.9392 8.50045C15.9392 12.8782 12.3779 16.4394 8.00023 16.4394ZM8.00023 1.55389C4.16971 1.55389 1.05366 4.66993 1.05366 8.50045C1.05366 12.331 4.16971 15.447 8.00023 15.447C11.8307 15.447 14.9468 12.331 14.9468 8.50045C14.9468 4.66993 11.8307 1.55389 8.00023 1.55389Z" fill="#505050"/>
<path fill-rule="evenodd" clip-rule="evenodd" d="M8 0.622137C3.65603 0.622137 0.122137 4.15603 0.122137 8.5C0.122137 12.844 3.65603 16.3779 8 16.3779C12.344 16.3779 15.8779 12.844 15.8779 8.5C15.8779 4.15603 12.344 0.622137 8 0.622137ZM0 8.5C0 4.08857 3.58857 0.5 8 0.5C12.4114 0.5 16 4.08857 16 8.5C16 12.9114 12.4114 16.5 8 16.5C3.58857 16.5 0 12.9114 0 8.5ZM0.992366 8.5C0.992366 4.63575 4.13575 1.49237 8 1.49237C11.8642 1.49237 15.0076 4.63575 15.0076 8.5C15.0076 12.3642 11.8642 15.5076 8 15.5076C4.13575 15.5076 0.992366 12.3642 0.992366 8.5ZM8 1.6145C4.20321 1.6145 1.1145 4.70321 1.1145 8.5C1.1145 12.2968 4.20321 15.3855 8 15.3855C11.7968 15.3855 14.8855 12.2968 14.8855 8.5C14.8855 4.70321 11.7968 1.6145 8 1.6145Z" fill="#505050"/>
<path d="M5.89439 5.69319L10.8063 10.6052C11 10.7988 11 11.1132 10.8063 11.3069C10.6127 11.5005 10.2983 11.5005 10.1046 11.3069L5.19268 6.3949C4.999 6.20123 4.999 5.88686 5.19268 5.69319C5.38635 5.49952 5.70071 5.49952 5.89439 5.69319Z" fill="#505050"/>
<path fill-rule="evenodd" clip-rule="evenodd" d="M5.23623 10.6483C5.06641 10.8181 5.06641 11.0938 5.23623 11.2637C5.40606 11.4335 5.68175 11.4335 5.85158 11.2637L10.7635 6.3517C10.9334 6.18188 10.9334 5.90618 10.7635 5.73636C10.5937 5.56653 10.318 5.56653 10.1482 5.73636L5.23623 10.6483ZM5.14987 11.35C4.93235 11.1325 4.93235 10.7795 5.14987 10.562L10.0618 5.64999C10.2794 5.43247 10.6324 5.43247 10.8499 5.64999C11.0674 5.86751 11.0674 6.22055 10.8499 6.43807L5.93794 11.35C5.72042 11.5676 5.36739 11.5676 5.14987 11.35Z" fill="#505050"/>
<path d="M10.8066 5.69319C11.0003 5.88686 11.0003 6.20123 10.8066 6.3949L5.89466 11.3069C5.70099 11.5005 5.38663 11.5005 5.19295 11.3069C4.99928 11.1132 4.99928 10.7988 5.19295 10.6052L10.1049 5.69319C10.2986 5.49952 10.613 5.49952 10.8066 5.69319Z" fill="#505050"/>
<path fill-rule="evenodd" clip-rule="evenodd" d="M5.23651 5.73633C5.06668 5.90616 5.06668 6.18186 5.23651 6.35168L10.1485 11.2636C10.3183 11.4335 10.594 11.4335 10.7638 11.2636C10.9336 11.0938 10.9336 10.8181 10.7638 10.6483L5.85185 5.73633C5.68203 5.56651 5.40633 5.56651 5.23651 5.73633ZM5.15014 6.43804C4.93262 6.22052 4.93262 5.86749 5.15014 5.64997C5.36767 5.43245 5.7207 5.43245 5.93822 5.64997L10.8502 10.5619C11.0677 10.7795 11.0677 11.1325 10.8502 11.35C10.6327 11.5675 10.2796 11.5675 10.0621 11.35L5.15014 6.43804Z" fill="#505050"/>
</g>
<defs>
<clipPath id="clip0">
<rect width="16" height="16" fill="white" transform="translate(0 0.5)"/>
</clipPath>
</defs>
</svg>
