<svg width="13" height="13" viewBox="0 0 13 13" fill="none" xmlns="http://www.w3.org/2000/svg">
<rect width="13" height="13" fill="white"/>
<circle cx="6.5" cy="6.5" r="6.5" fill="white"/>
<path d="M11.0982 1.90173C8.56203 -0.633911 4.43749 -0.633911 1.90131 1.90173C-0.633771 4.43738 -0.633771 8.56298 1.90131 11.0986C3.1694 12.3662 4.83471 12.9997 6.50004 12.9997C8.16537 12.9997 9.83012 12.3662 11.0982 11.0986C13.6339 8.56301 13.6339 4.43738 11.0982 1.90173ZM9.18198 8.41613C9.39386 8.62801 9.39386 8.97051 9.18198 9.1824C9.0763 9.28807 8.93758 9.34119 8.79883 9.34119C8.66011 9.34119 8.52136 9.28807 8.41569 9.1824L6.50001 7.26616L4.58488 9.18184C4.47867 9.28751 4.33992 9.34063 4.20173 9.34063C4.06301 9.34063 3.92426 9.28751 3.81859 9.18184C3.60671 8.96996 3.60671 8.62692 3.81859 8.41557L5.73373 6.4999L3.81805 4.58423C3.60617 4.37235 3.60617 4.02931 3.81805 3.81796C4.0294 3.60608 4.37244 3.60608 4.58432 3.81796L6.49999 5.73364L8.41566 3.81796C8.62754 3.60608 8.97005 3.60608 9.18193 3.81796C9.39381 4.02931 9.39381 4.37235 9.18193 4.58423L7.26625 6.4999L9.18198 8.41613Z" fill="#505050"/>
</svg>
