<svg width="16" height="17" viewBox="0 0 16 17" fill="none" xmlns="http://www.w3.org/2000/svg">
<g clip-path="url(#clip0)">
<path d="M13.5185 15.402H12.5778V13.7158C12.5778 12.0098 11.6415 10.4416 9.94149 9.30006C9.7301 9.1581 9.5987 8.85162 9.5987 8.49995C9.5987 8.14827 9.7301 7.8419 9.9416 7.69984C11.6415 6.5584 12.5778 4.99024 12.5779 3.28422V1.59797H13.5185C13.8217 1.59797 14.0674 1.3522 14.0674 1.04896C14.0674 0.74571 13.8217 0.5 13.5185 0.5H2.48242C2.17928 0.5 1.93346 0.745711 1.93346 1.0489C1.93346 1.35215 2.17928 1.59791 2.48242 1.59791H3.42319V3.28427C3.42319 4.99029 4.35932 6.55845 6.05947 7.69989C6.27086 7.84195 6.40226 8.14832 6.40226 8.5C6.40226 8.85173 6.27086 9.15816 6.05936 9.30022C4.35932 10.4417 3.42319 12.0098 3.42319 13.7158V15.4021H2.48242C2.17928 15.4021 1.93346 15.6479 1.93346 15.9511C1.93346 16.2543 2.17928 16.5001 2.48242 16.5001H13.5185C13.8216 16.5001 14.0674 16.2544 14.0674 15.9511C14.0674 15.6479 13.8217 15.402 13.5185 15.402ZM4.52115 13.7158C4.52115 11.9232 5.86828 10.7509 6.6714 10.2118C7.19035 9.8634 7.50022 9.22345 7.50022 8.5C7.50022 7.77661 7.19035 7.13666 6.6714 6.78832C5.86828 6.24917 4.52115 5.07692 4.52115 3.28432V1.59797H11.4798L11.4797 3.28432C11.4797 5.07692 10.1326 6.24917 9.32956 6.78822C8.8105 7.13671 8.50063 7.77666 8.50063 8.5C8.50063 9.2235 8.8105 9.86334 9.32945 10.2118C10.1326 10.7509 11.4797 11.9232 11.4798 13.7158V15.402H4.52115V13.7158Z" fill="#505050"/>
</g>
<defs>
<clipPath id="clip0">
<rect width="16" height="16" fill="white" transform="translate(0 0.5)"/>
</clipPath>
</defs>
</svg>
