<svg width="14" height="17" viewBox="0 0 14 17" fill="none" xmlns="http://www.w3.org/2000/svg">
<g clip-path="url(#clip0)">
<path d="M9.50997 3.29828H1.3821C0.619437 3.29828 0 3.86514 0 4.56307V15.2352C0 15.9331 0.619437 16.5 1.3821 16.5H9.50997C10.2726 16.5 10.8921 15.9331 10.8921 15.2352V4.56307C10.8885 3.86514 10.2691 3.29828 9.50997 3.29828ZM9.92174 15.2319C9.92174 15.4416 9.73555 15.612 9.50639 15.612H1.37852C1.14936 15.612 0.963171 15.4416 0.963171 15.2319V4.56307C0.963171 4.35337 1.14936 4.18298 1.37852 4.18298H9.50639C9.73555 4.18298 9.92174 4.35337 9.92174 4.56307V15.2319Z" fill="#505050"/>
<path d="M12.6176 0.5H4.48976C3.7271 0.5 3.10766 1.06686 3.10766 1.7648C3.10766 2.01055 3.32249 2.20715 3.59103 2.20715C3.85958 2.20715 4.07441 2.01055 4.07441 1.7648C4.07441 1.55509 4.2606 1.3847 4.48976 1.3847H12.6176C12.8468 1.3847 13.033 1.55509 13.033 1.7648V12.4369C13.033 12.6466 12.8468 12.817 12.6176 12.817C12.3491 12.817 12.1343 13.0136 12.1343 13.2594C12.1343 13.5051 12.3491 13.7017 12.6176 13.7017C13.3803 13.7017 13.9997 13.1349 13.9997 12.4369V1.7648C13.9997 1.06686 13.3803 0.5 12.6176 0.5Z" fill="#505050"/>
</g>
<defs>
<clipPath id="clip0">
<rect width="14" height="16" fill="white" transform="translate(0 0.5)"/>
</clipPath>
</defs>
</svg>
