<svg width="16" height="17" viewBox="0 0 16 17" fill="none" xmlns="http://www.w3.org/2000/svg">
<g clip-path="url(#clip0)">
<path d="M3.41913 3.1791H0.470585C0.210656 3.1791 0 2.96406 0 2.69905C0 2.43403 0.210656 2.21899 0.470585 2.21899H3.41913C3.67906 2.21899 3.88972 2.43403 3.88972 2.69905C3.88972 2.96406 3.67906 3.1791 3.41913 3.1791Z" fill="#505050"/>
<path d="M5.10373 4.89783C3.91514 4.89783 2.94821 3.91144 2.94821 2.69904C2.94821 1.48639 3.91514 0.5 5.10373 0.5C6.29231 0.5 7.25924 1.48639 7.25924 2.69904C7.25924 3.91148 6.29231 4.89783 5.10373 4.89783ZM5.10373 1.46015C4.43412 1.46015 3.88938 2.01596 3.88938 2.69904C3.88938 3.38212 4.43412 3.93769 5.10373 3.93769C5.77333 3.93769 6.31807 3.38212 6.31807 2.69904C6.31807 2.01596 5.77333 1.46015 5.10373 1.46015Z" fill="#505050"/>
<path d="M15.5288 3.1791H8.49546C8.23553 3.1791 8.02487 2.96406 8.02487 2.69905C8.02487 2.43403 8.23553 2.21899 8.49546 2.21899H15.5288C15.7887 2.21899 15.9994 2.43403 15.9994 2.69905C15.9994 2.96406 15.7887 3.1791 15.5288 3.1791Z" fill="#505050"/>
<path d="M11.4221 10.6988C10.2335 10.6988 9.26663 9.71238 9.26663 8.49999C9.26663 7.28759 10.2336 6.30121 11.4221 6.30121C12.6107 6.30121 13.5777 7.28759 13.5777 8.49999C13.5777 9.71238 12.6108 10.6988 11.4221 10.6988ZM11.4221 7.26135C10.7525 7.26135 10.2078 7.81691 10.2078 8.49999C10.2078 9.18306 10.7525 9.73862 11.4221 9.73862C12.0918 9.73862 12.6365 9.18306 12.6365 8.49999C12.6365 7.81691 12.0918 7.26135 11.4221 7.26135Z" fill="#505050"/>
<path d="M8.03053 8.98007H0.470585C0.210656 8.98007 0 8.76503 0 8.50001C0 8.235 0.210656 8.01996 0.470585 8.01996H8.03053C8.29046 8.01996 8.50112 8.235 8.50112 8.50001C8.50112 8.76503 8.29046 8.98007 8.03053 8.98007Z" fill="#505050"/>
<path d="M15.5295 8.98007H13.1074C12.8475 8.98007 12.6368 8.76503 12.6368 8.50001C12.6368 8.235 12.8475 8.01996 13.1074 8.01996H15.5295C15.7894 8.01996 16 8.235 16 8.50001C16 8.76503 15.7894 8.98007 15.5295 8.98007Z" fill="#505050"/>
<path d="M4.57767 16.5C3.38908 16.5 2.42215 15.5136 2.42215 14.301C2.42215 13.0886 3.38908 12.1022 4.57767 12.1022C5.76626 12.1022 6.73319 13.0886 6.73319 14.301C6.73319 15.5136 5.76626 16.5 4.57767 16.5ZM4.57767 13.0623C3.90806 13.0623 3.36332 13.6179 3.36332 14.301C3.36332 14.984 3.90806 15.5399 4.57767 15.5399C5.24728 15.5399 5.79202 14.984 5.79202 14.301C5.79202 13.6179 5.24728 13.0623 4.57767 13.0623Z" fill="#505050"/>
<path d="M15.5293 14.781H7.96938C7.70945 14.781 7.49879 14.566 7.49879 14.301C7.49879 14.036 7.70945 13.8209 7.96938 13.8209H15.5293C15.7893 13.8209 15.9999 14.036 15.9999 14.301C15.9999 14.566 15.7893 14.781 15.5293 14.781Z" fill="#505050"/>
<path d="M2.89265 14.7811H0.470585C0.210656 14.7811 0 14.566 0 14.301C0 14.036 0.210656 13.8209 0.470585 13.8209H2.89265C3.15258 13.8209 3.36324 14.036 3.36324 14.301C3.36324 14.566 3.15258 14.7811 2.89265 14.7811Z" fill="#505050"/>
</g>
<defs>
<clipPath id="clip0">
<rect width="16" height="16" fill="white" transform="translate(0 0.5)"/>
</clipPath>
</defs>
</svg>
