<svg width="16" height="17" viewBox="0 0 16 17" fill="none" xmlns="http://www.w3.org/2000/svg">
<g clip-path="url(#clip0)">
<path d="M15.4438 2.84658H11.7295V2.30796C11.7295 1.34497 10.8486 0.561523 9.76582 0.561523H6.23496C5.15222 0.561523 4.27134 1.34497 4.27134 2.30796V2.84658H0.556957C0.281682 2.84658 0.0614624 3.04244 0.0614624 3.28727C0.0614624 3.53209 0.281682 3.72796 0.556957 3.72796H1.45252V14.0825C1.45252 15.3817 2.64171 16.4394 4.1025 16.4394H11.8983C13.3591 16.4394 14.5483 15.3817 14.5483 14.0825V3.72796H15.4438C15.7191 3.72796 15.9393 3.53209 15.9393 3.28727C15.9393 3.04244 15.7191 2.84658 15.4438 2.84658ZM5.26233 2.30796C5.26233 1.83136 5.6991 1.4429 6.23496 1.4429H9.76582C10.3017 1.4429 10.7385 1.83136 10.7385 2.30796V2.84658H5.26233V2.30796ZM13.5573 14.0825C13.5573 14.8953 12.8122 15.558 11.8983 15.558H4.1025C3.18859 15.558 2.44351 14.8953 2.44351 14.0825V3.72796H13.5609V14.0825H13.5573Z" fill="#505050"/>
<path fill-rule="evenodd" clip-rule="evenodd" d="M4.20987 2.3075C4.20987 1.30426 5.12502 0.5 6.23457 0.5H9.76543C10.875 0.5 11.7901 1.30426 11.7901 2.3075V2.78505H15.4434C15.7455 2.78505 16 3.00172 16 3.28681C16 3.5719 15.7455 3.78857 15.4434 3.78857H14.6089V14.0821C14.6089 15.4215 13.3855 16.5 11.8979 16.5H4.10211C2.61451 16.5 1.39106 15.4215 1.39106 14.0821V3.78857H0.556564C0.254488 3.78857 0 3.5719 0 3.28681C0 3.00172 0.254488 2.78505 0.556564 2.78505H4.20987V2.3075ZM6.23457 0.622137C5.17862 0.622137 4.33201 1.38478 4.33201 2.3075V2.90719H0.556564C0.30809 2.90719 0.122137 3.08224 0.122137 3.28681C0.122137 3.49138 0.30809 3.66643 0.556564 3.66643H1.51319V14.0821C1.51319 15.341 2.66811 16.3779 4.10211 16.3779H11.8979C13.3319 16.3779 14.4868 15.341 14.4868 14.0821V3.66643H15.4434C15.6919 3.66643 15.8779 3.49138 15.8779 3.28681C15.8779 3.08224 15.6919 2.90719 15.4434 2.90719H11.668V2.3075C11.668 1.38478 10.8214 0.622137 9.76543 0.622137H6.23457ZM6.23457 1.50352C5.7255 1.50352 5.323 1.87117 5.323 2.3075V2.78505H10.677V2.3075C10.677 1.87117 10.2745 1.50352 9.76543 1.50352H6.23457ZM5.20086 2.3075C5.20086 1.79065 5.6719 1.38138 6.23457 1.38138H9.76543C10.3281 1.38138 10.7991 1.79065 10.7991 2.3075V2.90719H5.20086V2.3075ZM2.38205 3.66643H13.6216V14.1431H13.6166C13.5805 14.9675 12.8161 15.6186 11.8979 15.6186H4.10211C3.16139 15.6186 2.38205 14.9351 2.38205 14.0821V3.66643ZM13.4995 14.021V3.78857H2.50418V14.0821C2.50418 14.8546 3.21499 15.4965 4.10211 15.4965H11.8979C12.785 15.4965 13.4958 14.8546 13.4958 14.0821V14.021H13.4995Z" fill="#505050"/>
<path d="M7.99965 13.9776C8.27493 13.9776 8.49515 13.7818 8.49515 13.537V5.74818C8.49515 5.50336 8.27493 5.3075 7.99965 5.3075C7.72437 5.3075 7.50415 5.50336 7.50415 5.74818V13.5337C7.50415 13.7785 7.72437 13.9776 7.99965 13.9776Z" fill="#505050"/>
<path fill-rule="evenodd" clip-rule="evenodd" d="M7.44373 5.74816C7.44373 5.46307 7.69822 5.2464 8.0003 5.2464C8.30237 5.2464 8.55687 5.46307 8.55687 5.74816V13.5369C8.55687 13.822 8.30237 14.0387 8.0003 14.0387C7.6976 14.0387 7.44373 13.8182 7.44373 13.5337V5.74816ZM8.0003 5.36854C7.75182 5.36854 7.56586 5.54359 7.56586 5.74816V13.5337C7.56586 13.7388 7.75243 13.9165 8.0003 13.9165C8.24877 13.9165 8.43473 13.7415 8.43473 13.5369V5.74816C8.43473 5.54359 8.24877 5.36854 8.0003 5.36854Z" fill="#505050"/>
<path d="M4.76631 13.4913C5.04158 13.4913 5.2618 13.2954 5.2618 13.0506V6.23134C5.2618 5.98651 5.04158 5.79065 4.76631 5.79065C4.49103 5.79065 4.27081 5.98651 4.27081 6.23134V13.0506C4.27081 13.2954 4.4947 13.4913 4.76631 13.4913Z" fill="#505050"/>
<path fill-rule="evenodd" clip-rule="evenodd" d="M4.2099 6.23131C4.2099 5.94622 4.46439 5.72955 4.76646 5.72955C5.06854 5.72955 5.32303 5.94622 5.32303 6.23131V13.0506C5.32303 13.3357 5.06854 13.5523 4.76646 13.5523C4.46837 13.5523 4.2099 13.3359 4.2099 13.0506V6.23131ZM4.76646 5.85169C4.51799 5.85169 4.33204 6.02674 4.33204 6.23131V13.0506C4.33204 13.2549 4.52135 13.4302 4.76646 13.4302C5.01494 13.4302 5.20089 13.2551 5.20089 13.0506V6.23131C5.20089 6.02674 5.01494 5.85169 4.76646 5.85169Z" fill="#505050"/>
<path d="M11.234 13.4913C11.5093 13.4913 11.7295 13.2954 11.7295 13.0506V6.23134C11.7295 5.98651 11.5093 5.79065 11.234 5.79065C10.9587 5.79065 10.7385 5.98651 10.7385 6.23134V13.0506C10.7385 13.2954 10.9587 13.4913 11.234 13.4913Z" fill="#505050"/>
<path fill-rule="evenodd" clip-rule="evenodd" d="M10.6771 6.23131C10.6771 5.94622 10.9316 5.72955 11.2336 5.72955C11.5357 5.72955 11.7902 5.94622 11.7902 6.23131V13.0506C11.7902 13.3357 11.5357 13.5523 11.2336 13.5523C10.9316 13.5523 10.6771 13.3357 10.6771 13.0506V6.23131ZM11.2336 5.85169C10.9852 5.85169 10.7992 6.02674 10.7992 6.23131V13.0506C10.7992 13.2551 10.9852 13.4302 11.2336 13.4302C11.4821 13.4302 11.6681 13.2551 11.6681 13.0506V6.23131C11.6681 6.02674 11.4821 5.85169 11.2336 5.85169Z" fill="#505050"/>
</g>
<defs>
<clipPath id="clip0">
<rect width="16" height="16" fill="white" transform="translate(0 0.5)"/>
</clipPath>
</defs>
</svg>
