<svg width="16" height="17" viewBox="0 0 16 17" fill="none" xmlns="http://www.w3.org/2000/svg">
<g clip-path="url(#clip0)">
<path d="M14.7672 10.5409C14.5471 10.5409 14.3688 10.7202 14.3688 10.9414V14.4973C14.368 15.1606 13.8333 15.6982 13.1733 15.6988H1.9924C1.33241 15.6982 0.797737 15.1606 0.796958 14.4973V4.06087C0.797737 3.39771 1.33241 2.86018 1.9924 2.8594H5.53045C5.75055 2.8594 5.92893 2.68011 5.92893 2.4589C5.92893 2.23785 5.75055 2.05841 5.53045 2.05841H1.9924C0.892531 2.05966 0.00124525 2.95545 0 4.06087V14.4975C0.00124525 15.6029 0.892531 16.4987 1.9924 16.4999H13.1733C14.2732 16.4987 15.1645 15.6029 15.1657 14.4975V10.9414C15.1657 10.7202 14.9873 10.5409 14.7672 10.5409Z" fill="#505050"/>
<path fill-rule="evenodd" clip-rule="evenodd" d="M1.99239 2.05837H5.53045C5.75055 2.05837 5.92893 2.23781 5.92893 2.45887C5.92893 2.68008 5.75055 2.85936 5.53045 2.85936H1.99239C1.33241 2.86014 0.797731 3.39768 0.796952 4.06084V14.4973C0.797731 15.1606 1.33241 15.6981 1.99239 15.6988H13.1733C13.8333 15.6981 14.368 15.1606 14.3687 14.4973V10.9413C14.3687 10.7201 14.5471 10.5408 14.7672 10.5408C14.9873 10.5408 15.1657 10.7201 15.1657 10.9413V14.4974C15.1645 15.6029 14.2732 16.4986 13.1733 16.4999H1.99239C0.892525 16.4986 0.00123921 15.6029 -6.03497e-06 14.4974V4.06084C0.00123921 2.95542 0.892525 2.05963 1.99239 2.05837ZM14.2687 14.4972C14.268 15.1058 13.7775 15.5982 13.1732 15.5988H1.99248C1.38819 15.5982 0.897719 15.1059 0.896952 14.4973V4.06086C0.897719 3.45243 1.38812 2.96013 1.99241 2.95936H5.53045C5.80625 2.95936 6.02893 2.73483 6.02893 2.45887C6.02893 2.18309 5.80627 1.95837 5.53045 1.95837L1.99239 1.95837C0.836912 1.95969 -0.0986991 2.90064 -0.100006 4.06073L-0.100006 14.4974C-0.0986993 15.6575 0.836798 16.5986 1.99228 16.5999H13.1733C14.3288 16.5986 15.2644 15.6576 15.2657 14.4975V10.9413C15.2657 10.6654 15.043 10.4408 14.7672 10.4408C14.4914 10.4408 14.2687 10.6654 14.2687 10.9413V14.4972Z" fill="#505050"/>
<path fill-rule="evenodd" clip-rule="evenodd" d="M1.9924 2.03339L5.53046 2.03339C5.76449 2.03339 5.95394 2.22414 5.95394 2.45888C5.95394 2.69378 5.76448 2.88437 5.53046 2.88437H1.99243C1.34635 2.88514 0.822727 3.41138 0.821964 4.06088V14.4973C0.822727 15.1469 1.34636 15.6732 1.99243 15.6738H13.1733C13.8194 15.6732 14.343 15.1469 14.3438 14.4973V10.9413C14.3438 10.7065 14.5332 10.5159 14.7672 10.5159C15.0013 10.5159 15.1907 10.7065 15.1907 10.9413V14.4974C15.1895 15.6165 14.2871 16.5236 13.1734 16.5249H1.9924C0.878634 16.5236 -0.0237332 15.6166 -0.0249939 14.4975L-0.0249939 4.06085C-0.0237333 2.94176 0.878634 2.03465 1.9924 2.03339ZM1.99243 2.08339C0.906474 2.08462 0.0262439 2.96911 0.0250061 4.06086L0.0250061 14.4974C0.0262359 15.5892 0.906469 16.4737 1.99243 16.4749H13.1733C14.2593 16.4737 15.1395 15.5892 15.1407 14.4974V10.9413C15.1407 10.7338 14.9734 10.5659 14.7672 10.5659C14.5611 10.5659 14.3938 10.7338 14.3938 10.9413V14.4973C14.393 15.1743 13.8472 15.7231 13.1733 15.7238H1.9924C1.31851 15.7231 0.772759 15.1743 0.771964 14.4973V4.06085C0.772759 3.38403 1.31849 2.83517 1.99237 2.83437H5.53046C5.73663 2.83437 5.90394 2.6664 5.90394 2.45888C5.90394 2.25151 5.73663 2.08339 5.53046 2.08339L1.99243 2.08339Z" fill="#505050"/>
<path d="M15.0082 1.02788C14.3079 0.324041 13.1725 0.324041 12.4722 1.02788L5.36311 8.17292C5.31439 8.22188 5.27921 8.28258 5.26084 8.34923L4.32597 11.7414C4.28753 11.8804 4.3266 12.0294 4.42808 12.1315C4.52973 12.2335 4.67791 12.2728 4.81629 12.2343L8.19138 11.2946C8.25769 11.2761 8.31808 11.2408 8.3668 11.1918L15.4758 4.04659C16.175 3.34229 16.175 2.20213 15.4758 1.49783L15.0082 1.02788ZM6.23136 8.43324L12.0496 2.58542L13.9261 4.47133L8.10763 10.3192L6.23136 8.43324ZM5.85654 9.18917L7.35566 10.696L5.28201 11.2735L5.85654 9.18917ZM14.9123 3.48027L14.4897 3.90501L12.6131 2.01894L13.0359 1.5942C13.4248 1.20325 14.0556 1.20325 14.4445 1.5942L14.9123 2.06415C15.3006 2.45557 15.3006 3.08901 14.9123 3.48027Z" fill="#505050"/>
</g>
<defs>
<clipPath id="clip0">
<rect width="16" height="16" fill="white" transform="translate(0 0.5)"/>
</clipPath>
</defs>
</svg>
