<svg width="16" height="15" viewBox="0 0 16 15" fill="none" xmlns="http://www.w3.org/2000/svg">
<g clip-path="url(#clip0)">
<path d="M14.6666 2.60003H11.3333V1.90001C11.3333 1.1279 10.7354 0.5 9.99998 0.5H5.99999C5.26465 0.5 4.66665 1.12787 4.66665 1.90001V2.6H1.33334C0.597968 2.60003 0 3.2279 0 4.00001V13.1C0 13.8721 0.597968 14.5 1.33334 14.5H14.6667C15.402 14.5 16 13.8721 16 13.1V4.00001C16 3.2279 15.402 2.60003 14.6666 2.60003ZM5.33333 1.90001C5.33333 1.51414 5.63249 1.20002 5.99999 1.20002H9.99998C10.3675 1.20002 10.6666 1.51414 10.6666 1.90001V2.6H5.33333V1.90001ZM15.3333 13.1C15.3333 13.4859 15.0342 13.8 14.6667 13.8H1.33334C0.965842 13.8 0.666686 13.4859 0.666686 13.1V8.00533C0.863592 8.12588 1.0894 8.20004 1.33334 8.20004H6.66667V9.25004C6.66667 9.4435 6.81577 9.60005 7.00002 9.60005H9.00001C9.18426 9.60005 9.33336 9.4435 9.33336 9.25004V8.20004H14.6667C14.9106 8.20004 15.1365 8.12591 15.3333 8.00533V13.1H15.3333ZM7.33333 8.90003V7.50002H8.66667V8.90003H7.33333ZM15.3333 6.80003C15.3333 7.1859 15.0342 7.50002 14.6667 7.50002H9.33333V7.15001C9.33333 6.95654 9.18423 6.8 8.99998 6.8H6.99999C6.81574 6.8 6.66664 6.95654 6.66664 7.15001V7.50002H1.33334C0.965842 7.50002 0.666686 7.1859 0.666686 6.80003V4.00004C0.666686 3.61417 0.965842 3.30005 1.33334 3.30005H14.6667C15.0342 3.30005 15.3333 3.61417 15.3333 4.00004V6.80003Z" fill="#505050" stroke="black" stroke-width="0.1"/>
</g>
<defs>
<clipPath id="clip0">
<rect width="16" height="14" fill="white" transform="translate(0 0.5)"/>
</clipPath>
</defs>
</svg>
