<svg width="16" height="16" viewBox="0 0 16 16" fill="none" xmlns="http://www.w3.org/2000/svg">
<path d="M10.6667 13V11.6667C10.6667 10.9594 10.3857 10.2811 9.88564 9.78105C9.38554 9.28095 8.70726 9 8.00002 9H3.33335C2.62611 9 1.94783 9.28095 1.44774 9.78105C0.947639 10.2811 0.666687 10.9594 0.666687 11.6667V13" stroke="#505050" stroke-linecap="round" stroke-linejoin="round"/>
<path d="M5.66667 6.33333C7.13943 6.33333 8.33333 5.13943 8.33333 3.66667C8.33333 2.19391 7.13943 1 5.66667 1C4.19391 1 3 2.19391 3 3.66667C3 5.13943 4.19391 6.33333 5.66667 6.33333Z" stroke="#505050" stroke-linecap="round" stroke-linejoin="round"/>
<path d="M12 4.33331L15.3333 7.66665" stroke="#505050" stroke-linecap="round" stroke-linejoin="round"/>
<path d="M15.3333 4.33331L12 7.66665" stroke="#505050" stroke-linecap="round" stroke-linejoin="round"/>
</svg>
