<svg width="14" height="16" viewBox="0 0 14 16" fill="none" xmlns="http://www.w3.org/2000/svg">
<path d="M7.39113 5.5229H6.60896C6.26406 5.5229 5.98345 5.28271 5.98345 4.98746C5.98345 4.69225 6.26406 4.45206 6.60896 4.45206H8.17315C8.47559 4.45206 8.72079 4.24218 8.72079 3.98331C8.72079 3.72443 8.47559 3.51456 8.17315 3.51456H7.54761V2.97919C7.54761 2.72031 7.30241 2.51044 6.99997 2.51044C6.69753 2.51044 6.45234 2.72031 6.45234 2.97919V3.52097C5.57667 3.58893 4.88818 4.22056 4.88818 4.9875C4.88818 5.79968 5.66013 6.46043 6.60896 6.46043H7.39113C7.73603 6.46043 8.01664 6.70062 8.01664 6.99584C8.01664 7.29105 7.73607 7.53124 7.39113 7.53124H5.82683C5.52439 7.53124 5.2792 7.74111 5.2792 7.99999C5.2792 8.25886 5.52439 8.46874 5.82683 8.46874H6.45234V9.00414C6.45234 9.26302 6.69753 9.47289 6.99997 9.47289C7.30241 9.47289 7.54761 9.26302 7.54761 9.00414V8.46236C8.42335 8.39443 9.11191 7.7628 9.11191 6.9958C9.11191 6.18365 8.34 5.5229 7.39113 5.5229Z" fill="#505050"/>
<path d="M9.93292 11.0458H4.06717C3.76473 11.0458 3.51953 11.2557 3.51953 11.5146C3.51953 11.7735 3.76473 11.9833 4.06717 11.9833H9.93292C10.2354 11.9833 10.4806 11.7735 10.4806 11.5146C10.4806 11.2557 10.2354 11.0458 9.93292 11.0458Z" fill="#505050"/>
<path d="M13.4523 0H0.547635C0.245194 0 0 0.209875 0 0.468749V14.1505C0 14.2748 0.0577209 14.394 0.160421 14.4819L1.77353 15.8627C1.98737 16.0457 2.33413 16.0457 2.548 15.8627L3.77386 14.8134L4.99969 15.8627C5.10239 15.9506 5.24167 16 5.38694 16C5.53217 16 5.67149 15.9506 5.77419 15.8627L6.99998 14.8134L8.22584 15.8627C8.32854 15.9506 8.46783 16 8.61306 16C8.75833 16 8.89761 15.9506 9.00031 15.8627L10.2261 14.8134L11.452 15.8627C11.5589 15.9542 11.6991 16 11.8392 16C11.9794 16 12.1195 15.9543 12.2265 15.8627L13.8396 14.4819C13.9423 14.394 14 14.2748 14 14.1505V0.468749C14 0.209875 13.7548 0 13.4523 0ZM11.8392 14.8683L10.6134 13.819C10.5107 13.7311 10.3713 13.6817 10.2261 13.6817C10.0808 13.6817 9.94155 13.7311 9.83885 13.819L8.61302 14.8683L7.38716 13.819C7.17333 13.636 6.82656 13.636 6.61269 13.819L5.38683 14.8683L4.161 13.819C4.0583 13.7311 3.91902 13.6817 3.77375 13.6817C3.62852 13.6817 3.48924 13.7311 3.38654 13.819L2.16068 14.8683L1.0952 13.9563V0.937498H12.9047V13.9563H12.9047L11.8392 14.8683Z" fill="#505050"/>
</svg>
