<svg width="16" height="16" viewBox="0 0 16 16" fill="none" xmlns="http://www.w3.org/2000/svg">
<path d="M11.2122 0.147217C9.97197 0.147217 8.80704 0.629994 7.9314 1.50633L1.50642 7.93131C0.630084 8.80795 0.146973 9.97325 0.146973 11.2125C0.146973 13.771 2.22867 15.8527 4.78725 15.8527C6.0275 15.8527 7.19243 15.37 8.06807 14.4936L14.493 8.06898C15.3694 7.1923 15.8525 6.02701 15.8525 4.78746C15.8525 2.22891 13.7708 0.147217 11.2122 0.147217ZM7.5633 13.9889C6.82222 14.7303 5.83646 15.1388 4.78725 15.1388C2.62256 15.1388 0.860881 13.3775 0.860881 11.2125C0.860881 10.164 1.2694 9.17782 2.01119 8.43604L4.97129 5.47593L10.5235 11.0289L7.5633 13.9889ZM13.9883 7.56425L11.0282 10.5241L5.47602 4.97117L8.43613 2.01106C9.17721 1.26965 10.163 0.861092 11.2122 0.861092C13.3769 0.861092 15.1386 2.62247 15.1386 4.78749C15.1386 5.83633 14.7301 6.82247 13.9883 7.56425Z" fill="#505050"/>
<path fill-rule="evenodd" clip-rule="evenodd" d="M7.82755 1.40224C8.73082 0.498272 9.93321 0 11.2125 0C13.8524 0 16 2.14761 16 4.78748C16 6.06612 15.5014 7.26884 14.5974 8.1731L8.17249 14.5977C8.17247 14.5977 8.1725 14.5977 8.17249 14.5977C7.26922 15.5017 6.06679 16 4.78751 16C2.14761 16 0 13.8524 0 11.2125C0 9.93418 0.498653 8.73145 1.40256 7.82724L7.82755 1.40224C7.82754 1.40226 7.82757 1.40223 7.82755 1.40224ZM11.2125 0.294479C10.0113 0.294479 8.88383 0.761745 8.03582 1.61043L1.61082 8.03543C0.762049 8.88449 0.294479 10.0124 0.294479 11.2125C0.294479 13.6897 2.31025 15.7055 4.78751 15.7055C5.98872 15.7055 7.11617 15.2383 7.96418 14.3896L14.3892 7.96491C14.3892 7.9649 14.3892 7.96492 14.3892 7.96491C15.2379 7.11581 15.7055 5.98793 15.7055 4.78748C15.7055 2.31025 13.6897 0.294479 11.2125 0.294479ZM11.2125 1.00835C10.2023 1.00835 9.25399 1.40139 8.54053 2.11518L5.68451 4.9712L11.0285 10.3159L13.8844 7.46016C14.5986 6.74598 14.9916 5.7973 14.9916 4.78751C14.9916 2.70382 13.2958 1.00835 11.2125 1.00835ZM8.33226 1.90699C9.10096 1.13795 10.1242 0.713875 11.2125 0.713875C13.4584 0.713875 15.2861 2.54117 15.2861 4.78751C15.2861 5.87541 14.8621 6.899 14.0927 7.66839L11.0285 10.7323L5.26807 4.97119L8.33226 1.90699ZM4.97157 5.26772L10.732 11.0289L7.66771 14.093C7.6677 14.093 7.66772 14.093 7.66771 14.093C6.89901 14.862 5.87576 15.2861 4.78751 15.2861C2.54152 15.2861 0.713909 13.4588 0.713909 11.2125C0.713909 10.1249 1.13795 9.10133 1.90734 8.33195L4.97157 5.26772ZM4.97155 5.68419L2.11557 8.54018C1.40139 9.25436 1.00839 10.203 1.00839 11.2125C1.00839 13.2962 2.70414 14.9916 4.78751 14.9916C5.79767 14.9916 6.74597 14.5986 7.45943 13.8848L10.3156 11.0289L4.97155 5.68419Z" fill="#505050"/>
<path d="M4.65801 6.79953L2.51635 8.94085C1.90913 9.54771 1.5752 10.3543 1.5752 11.2125C1.5752 11.4098 1.73485 11.5695 1.93215 11.5695C2.12945 11.5695 2.2891 11.4098 2.2891 11.2125C2.2891 10.5453 2.54915 9.91755 3.02112 9.44558L5.16278 7.30426C5.30222 7.16481 5.30222 6.93894 5.16278 6.79953C5.0233 6.66009 4.79742 6.66009 4.65801 6.79953Z" fill="#505050"/>
<path fill-rule="evenodd" clip-rule="evenodd" d="M4.55369 6.69543C4.75061 6.49848 5.0697 6.49852 5.26666 6.69542C5.46362 6.89234 5.4636 7.21146 5.26667 7.40839L3.12501 9.54972C3.12501 9.54972 3.12501 9.54971 3.12501 9.54972C2.68065 9.99408 2.43612 10.5844 2.43612 11.2125C2.43612 11.4912 2.21055 11.7167 1.93193 11.7167C1.65331 11.7167 1.42773 11.4912 1.42773 11.2125C1.42773 10.3153 1.77716 9.47125 2.41203 8.83675M2.41203 8.83675L4.55369 6.69543C4.55369 6.69542 4.55368 6.69544 4.55369 6.69543M5.05845 6.90368C4.97646 6.8217 4.84381 6.82174 4.76192 6.90365L2.62024 9.045C2.04066 9.62422 1.72221 10.3934 1.72221 11.2125C1.72221 11.3285 1.81595 11.4223 1.93193 11.4223C2.04791 11.4223 2.14164 11.3285 2.14164 11.2125C2.14164 10.5063 2.41721 9.84106 2.91678 9.34149L5.05844 7.20017C5.14039 7.11822 5.14037 6.98558 5.05845 6.90368Z" fill="#505050"/>
</svg>
