<svg width="16" height="14" viewBox="0 0 16 14" fill="none" xmlns="http://www.w3.org/2000/svg">
<g clip-path="url(#clip0)">
<path d="M14.5043 0.709717H1.4962C0.778758 0.709717 0.195374 1.33662 0.195374 2.10758V11.8925C0.195374 12.6635 0.778758 13.2904 1.4962 13.2904H14.5043C15.2217 13.2904 15.8051 12.6635 15.8051 11.8925V2.10758C15.8051 1.33662 15.2217 0.709717 14.5043 0.709717ZM1.4962 1.40863H14.5043C14.5523 1.40863 14.5945 1.4274 14.6395 1.43802C13.5133 2.54561 9.779 6.21667 8.4722 7.4819C8.36995 7.58088 8.20513 7.69895 8.00028 7.69895C7.79543 7.69895 7.63062 7.58088 7.52803 7.48158C6.22135 6.21653 2.48687 2.54528 1.36086 1.43808C1.40592 1.42747 1.44824 1.40863 1.4962 1.40863ZM0.84577 11.8925V2.10758C0.84577 2.0391 0.864977 1.97699 0.882172 1.91441C1.74412 2.76216 4.34973 5.32364 6.03925 6.97462C4.35522 8.52908 1.74894 11.1844 0.88013 12.0747C0.864794 12.0152 0.84577 11.9571 0.84577 11.8925ZM14.5043 12.5914H1.4962C1.44425 12.5914 1.39806 12.572 1.34955 12.5595C2.24732 11.6398 4.87019 8.96927 6.52461 7.44836C6.74028 7.65859 6.93729 7.85028 7.0926 8.00066C7.36065 8.26073 7.6744 8.3979 8.00025 8.3979C8.3261 8.3979 8.63986 8.26069 8.90757 8.00099C9.06293 7.85054 9.2601 7.65869 9.47589 7.44836C11.1304 8.96911 13.7529 11.6395 14.651 12.5595C14.6024 12.572 14.5563 12.5914 14.5043 12.5914ZM15.1547 11.8925C15.1547 11.9571 15.1357 12.0152 15.1204 12.0747C14.2513 11.1839 11.6453 8.52892 9.96129 6.97465C11.6509 5.32367 14.2561 2.76243 15.1183 1.91435C15.1355 1.97692 15.1547 2.03907 15.1547 2.10754V11.8925Z" fill="#505050"/>
<path fill-rule="evenodd" clip-rule="evenodd" d="M0 2.10754C0 1.22078 0.670743 0.5 1.49594 0.5H14.5041C15.3293 0.5 16 1.22078 16 2.10754V11.8925C16 12.7792 15.3293 13.5 14.5041 13.5H1.49594C0.670746 13.5 0 12.7792 0 11.8925V2.10754ZM1.49594 0.919355C0.886269 0.919355 0.390244 1.45238 0.390244 2.10754V11.8925C0.390244 12.5476 0.886266 13.0806 1.49594 13.0806H14.5041C15.1137 13.0806 15.6098 12.5476 15.6098 11.8925V2.10754C15.6098 1.45238 15.1137 0.919355 14.5041 0.919355H1.49594ZM1.83297 1.61827C3.23586 2.99748 6.4634 6.16885 7.65836 7.32574C7.74566 7.41024 7.86531 7.48924 8.00003 7.48924C8.13479 7.48924 8.25445 7.4102 8.34136 7.32607C9.53646 6.16898 12.7639 2.99772 14.1668 1.61827H1.83297ZM1.37934 1.21606C1.40791 1.2083 1.44846 1.19891 1.49594 1.19891H14.5041C14.5515 1.19891 14.592 1.20826 14.6206 1.21602C14.6401 1.22131 14.6497 1.2243 14.6571 1.22659C14.6648 1.22895 14.67 1.23056 14.6811 1.23318L15.0483 1.31987L14.7709 1.59266C13.6451 2.69992 9.91008 6.37171 8.60256 7.63764L8.60254 7.63766C8.48494 7.75148 8.27497 7.90859 8.00003 7.90859C7.72505 7.90859 7.51507 7.75144 7.39718 7.63733L7.39717 7.63732C6.08978 6.37158 2.35454 2.69959 1.22889 1.59273L0.95132 1.3198L1.31883 1.23323C1.32987 1.23063 1.33512 1.22901 1.34285 1.22662C1.35027 1.22432 1.35999 1.22132 1.37934 1.21606ZM15.2168 1.53301L15.3052 1.85493C15.3066 1.8601 15.3082 1.86572 15.3099 1.87175C15.3251 1.92572 15.3496 2.01247 15.3496 2.10751V11.8925C15.3496 11.9797 15.3267 12.063 15.3136 12.1106C15.3115 12.1182 15.3097 12.1249 15.3082 12.1305L15.2213 12.468L14.9855 12.2264C14.1157 11.335 11.5134 8.68378 9.8339 7.13367L9.66642 6.97909L9.82976 6.81948C11.5191 5.16876 14.1241 2.60774 14.9863 1.75964L15.2168 1.53301ZM0.783245 1.53308L1.01366 1.7597C1.87563 2.60747 4.48102 5.16873 6.17027 6.81945L6.3336 6.97905L6.16613 7.13363C4.48661 8.68394 1.884 11.3354 1.01453 12.2264L0.778864 12.4679L0.691851 12.1306C0.690394 12.125 0.688551 12.1183 0.686457 12.1107C0.673354 12.0631 0.650396 11.9798 0.650396 11.8925V2.10754C0.650396 2.01252 0.674854 1.9258 0.690071 1.87185C0.691775 1.86581 0.693362 1.86018 0.694787 1.85499L0.783245 1.53308ZM10.2552 6.97051C11.7767 8.38857 13.9326 10.5721 14.9594 11.6206V2.35462C13.9381 3.35888 11.7794 5.48026 10.2552 6.97051ZM1.04064 2.35468V11.6207C2.06723 10.5724 4.2233 8.38869 5.74482 6.97048C4.22066 5.48026 2.06181 3.35876 1.04064 2.35468ZM6.52814 7.16891L6.65546 7.29302C6.87108 7.50321 7.0679 7.69471 7.22296 7.84485L7.22311 7.84499C7.45943 8.07427 7.72775 8.18818 8 8.18818C8.27227 8.18818 8.54059 8.07422 8.77657 7.84531L8.7767 7.84518C8.93182 7.69497 9.12879 7.50331 9.34455 7.29301L9.47186 7.16892L9.60247 7.28898C11.2617 8.81405 13.888 11.4884 14.7853 12.4077L15.0451 12.6739L14.696 12.7634C14.6878 12.7655 14.6791 12.7681 14.6669 12.7717C14.6558 12.7751 14.641 12.7796 14.6257 12.7836C14.5944 12.792 14.5526 12.8011 14.5041 12.8011H1.49594C1.44746 12.8011 1.40561 12.792 1.37438 12.7836C1.36029 12.7799 1.34655 12.7758 1.33579 12.7726L1.33309 12.7717C1.32096 12.7681 1.31217 12.7655 1.30397 12.7634L0.954894 12.6738L1.21466 12.4077C2.1117 11.4888 4.7384 8.81422 6.39752 7.28899L6.52814 7.16891ZM9.47913 7.72796C9.31332 7.88945 9.1623 8.03629 9.03793 8.15671C8.73851 8.44713 8.37938 8.60754 8 8.60754C7.62061 8.60754 7.26148 8.44715 6.96173 8.15639C6.83744 8.03604 6.68655 7.88935 6.52088 7.72797C5.03833 9.10236 2.87023 11.2959 1.80624 12.3817H14.1938C13.1297 11.2957 10.9618 9.10224 9.47913 7.72796Z" fill="#505050"/>
</g>
<defs>
<clipPath id="clip0">
<rect width="16" height="13" fill="white" transform="translate(0 0.5)"/>
</clipPath>
</defs>
</svg>
