<svg width="16" height="16" viewBox="0 0 16 16" fill="none" xmlns="http://www.w3.org/2000/svg">
<path d="M15.9991 5.08767C15.9263 1.05951 11.4895 -1.90914 8 1.47133C4.51283 -1.90696 0.0737347 1.05753 0.000904237 5.08767C-0.0257898 6.5642 0.539006 7.98581 1.63415 9.19884C1.63712 9.20231 3.85714 11.6484 7.66923 15.8488C7.85215 16.0504 8.14779 16.0504 8.33077 15.8488L14.3659 9.19884C15.461 7.98585 16.0258 6.5642 15.9991 5.08767ZM8 14.7478L2.85073 9.07393H4.49826C4.66299 9.07393 4.81565 8.97818 4.90039 8.82175L5.26036 8.15727L6.60381 10.4956C6.80139 10.8396 7.26532 10.8085 7.4233 10.4391L9.27738 6.10372L10.5885 8.80077C10.6703 8.969 10.8289 9.07397 11.0014 9.07397H13.1492L8 14.7478ZM14.0564 8.03502H11.2816L9.66354 4.70667C9.48215 4.33356 8.99162 4.34513 8.8268 4.73056L6.93921 9.14427L5.6443 6.89042C5.4555 6.56164 5.02421 6.57404 4.84651 6.90202L4.23276 8.03506H1.94366C1.26625 7.13263 0.920225 6.13042 0.938667 5.10848C0.997212 1.86948 4.72391 -0.711521 7.66839 2.54982C7.85137 2.75251 8.14851 2.75269 8.33161 2.54982C12.0911 -1.61433 17.2595 3.76874 14.0564 8.03502Z" fill="#505050"/>
</svg>
