<svg width="16" height="16" viewBox="0 0 16 16" fill="none" xmlns="http://www.w3.org/2000/svg">
<g clip-path="url(#clip0)">
<path d="M0.478905 7.57836L7.05888 0.490721C7.27447 0.258639 7.62351 0.259029 7.83873 0.491922C8.05379 0.724784 8.05323 1.102 7.83762 1.33427L1.6493 8.00006L7.83784 14.6658C8.05343 14.8981 8.05398 15.2751 7.83895 15.508C7.73106 15.6247 7.58972 15.6831 7.44838 15.6831C7.30739 15.6831 7.16661 15.6251 7.05891 15.5092L0.478905 8.42172C0.375072 8.31014 0.316805 8.15828 0.316805 8.00006C0.316805 7.84183 0.375238 7.69015 0.478905 7.57836Z" fill="#505050"/>
<path fill-rule="evenodd" clip-rule="evenodd" d="M8.07132 0.276795C7.7309 -0.0915755 7.16775 -0.0923525 6.82652 0.274996L0.246473 7.3627C0.0864239 7.5353 -0.00028801 7.76494 -0.00028801 8.00003C-0.00028801 8.23465 0.0858297 8.46457 0.246516 8.63737C0.246586 8.63744 0.246448 8.6373 0.246516 8.63737L6.82648 15.7248C6.99378 15.9049 7.21858 16 7.44821 16C7.67851 16 7.90405 15.9043 8.07154 15.7231C8.39891 15.3685 8.39815 14.8038 8.06997 14.4502L2.08158 8.00002L8.06972 1.54986C8.39796 1.19628 8.39876 0.631341 8.07132 0.276795ZM7.60581 0.706991C7.70841 0.818178 7.70814 1.0077 7.60519 1.11861C7.60518 1.11861 7.60519 1.11861 7.60519 1.11861L1.21668 8.00003L7.60538 14.8814C7.70834 14.9923 7.70862 15.1816 7.60603 15.2929C7.55774 15.3451 7.50059 15.3661 7.44821 15.3661C7.39589 15.3661 7.33909 15.3453 7.29101 15.2935C7.29099 15.2935 7.29103 15.2935 7.29101 15.2935L0.710999 8.20606C0.664153 8.15572 0.633565 8.08175 0.633565 8.00003C0.633565 7.91867 0.663844 7.84482 0.711128 7.79383L7.29092 0.706389C7.29094 0.706366 7.2909 0.706412 7.29092 0.706389C7.38083 0.609666 7.5158 0.609674 7.60581 0.706991Z" fill="#505050"/>
<path d="M8.16238 7.57836L14.7424 0.490721C14.9579 0.258639 15.307 0.259029 15.5222 0.491922C15.7373 0.724784 15.7367 1.102 15.5211 1.33427L9.33277 8.00006L15.5213 14.6658C15.7369 14.8981 15.7375 15.2751 15.5224 15.508C15.4145 15.6247 15.2732 15.6831 15.1318 15.6831C14.9909 15.6831 14.8501 15.6251 14.7424 15.5092L8.16238 8.42172C8.05854 8.31014 8.00028 8.15828 8.00028 8.00006C8.00028 7.84183 8.05871 7.69015 8.16238 7.57836Z" fill="#505050"/>
<path fill-rule="evenodd" clip-rule="evenodd" d="M15.7547 0.276795C15.4143 -0.0915755 14.8512 -0.0923525 14.5099 0.274996L7.92988 7.3627C7.76983 7.5353 7.68312 7.76494 7.68312 8.00003C7.68312 8.23465 7.76924 8.46457 7.92993 8.63737C7.93 8.63744 7.92986 8.6373 7.92993 8.63737L14.5099 15.7248C14.6772 15.9049 14.902 16 15.1316 16C15.3619 16 15.5875 15.9043 15.755 15.7231C16.0823 15.3685 16.0816 14.8038 15.7534 14.4502L9.765 8.00002L15.7531 1.54986C16.0814 1.19628 16.0822 0.631341 15.7547 0.276795ZM15.2892 0.706991C15.3918 0.818178 15.3916 1.0077 15.2886 1.11861C15.2886 1.11861 15.2886 1.11861 15.2886 1.11861L8.90009 8.00003L15.2888 14.8814C15.3917 14.9923 15.392 15.1816 15.2894 15.2929C15.2412 15.3451 15.184 15.3661 15.1316 15.3661C15.0793 15.3661 15.0225 15.3453 14.9744 15.2935C14.9744 15.2935 14.9744 15.2935 14.9744 15.2935L8.39441 8.20606C8.34756 8.15572 8.31698 8.08175 8.31698 8.00003C8.31698 7.91867 8.34725 7.84482 8.39454 7.79383L14.9743 0.706389C14.9743 0.706366 14.9743 0.706412 14.9743 0.706389C15.0642 0.609666 15.1992 0.609674 15.2892 0.706991Z" fill="#505050"/>
</g>
<defs>
<clipPath id="clip0">
<rect width="16" height="16" fill="white"/>
</clipPath>
</defs>
</svg>
