<svg width="16" height="16" viewBox="0 0 16 16" fill="none" xmlns="http://www.w3.org/2000/svg">
<path fill-rule="evenodd" clip-rule="evenodd" d="M14 1H2C1.44772 1 1 1.44772 1 2V14C1 14.5523 1.44772 15 2 15H14C14.5523 15 15 14.5523 15 14V2C15 1.44772 14.5523 1 14 1ZM2 0C0.895431 0 0 0.895431 0 2V14C0 15.1046 0.895431 16 2 16H14C15.1046 16 16 15.1046 16 14V2C16 0.895431 15.1046 0 14 0H2Z" fill="#505050"/>
<path d="M12.2812 11.3763H5.3268C5.04017 11.3763 4.80786 11.144 4.80786 10.8574C4.80786 10.5708 5.04017 10.3384 5.3268 10.3384H12.2811C12.5677 10.3384 12.8 10.5708 12.8 10.8574C12.8 11.144 12.5679 11.3763 12.2812 11.3763Z" fill="#505050"/>
<path d="M12.2812 8.11899H5.3268C5.04017 8.11899 4.80786 7.88668 4.80786 7.60005C4.80786 7.31343 5.04017 7.08112 5.3268 7.08112H12.2811C12.5677 7.08112 12.8 7.31343 12.8 7.60005C12.8002 7.88668 12.5679 8.11899 12.2812 8.11899Z" fill="#505050"/>
<path d="M12.2812 4.86166H5.3268C5.04017 4.86166 4.80786 4.62935 4.80786 4.34273C4.80786 4.0561 5.04017 3.82379 5.3268 3.82379H12.2811C12.5677 3.82379 12.8 4.0561 12.8 4.34273C12.8 4.62935 12.5679 4.86166 12.2812 4.86166Z" fill="#505050"/>
<path d="M3.09671 5.07978C3.48162 5.07978 3.79364 4.76775 3.79364 4.38284C3.79364 3.99794 3.48162 3.68591 3.09671 3.68591C2.71181 3.68591 2.39978 3.99794 2.39978 4.38284C2.39978 4.76775 2.71181 5.07978 3.09671 5.07978Z" fill="#505050"/>
<path d="M3.09686 8.297C3.48177 8.297 3.7938 7.98497 3.7938 7.60007C3.7938 7.21516 3.48177 6.90314 3.09686 6.90314C2.71196 6.90314 2.39993 7.21516 2.39993 7.60007C2.39993 7.98497 2.71196 8.297 3.09686 8.297Z" fill="#505050"/>
<path d="M3.09686 11.5142C3.48177 11.5142 3.7938 11.2022 3.7938 10.8173C3.7938 10.4324 3.48177 10.1204 3.09686 10.1204C2.71196 10.1204 2.39993 10.4324 2.39993 10.8173C2.39993 11.2022 2.71196 11.5142 3.09686 11.5142Z" fill="#505050"/>
</svg>
