<svg width="16" height="16" viewBox="0 0 16 16" fill="#505050" xmlns="http://www.w3.org/2000/svg">
<path d="M15.6836 7.11431L14.3403 5.82661V1.55672C14.3403 1.28504 14.131 1.06475 13.8727 1.06475H10.6393C10.3811 1.06475 10.1717 1.285 10.1717 1.55672V1.83033L8.54946 0.275158C8.23632 -0.02508 7.76412 -0.0250473 7.4511 0.275126L0.317002 7.11434C0.0661943 7.35482 -0.016694 7.72534 0.105853 8.05825C0.22843 8.39116 0.526878 8.60626 0.866226 8.60626H2.00564V15.4586C2.00564 15.7303 2.21498 15.9506 2.47324 15.9506H6.38359C6.64182 15.9506 6.8512 15.7303 6.8512 15.4586V11.2981H9.14937V15.4586C9.14937 15.7303 9.35871 15.9506 9.61697 15.9506H13.5272C13.7854 15.9506 13.9948 15.7304 13.9947 15.4586V8.60629H15.1344C15.4737 8.60629 15.7722 8.39116 15.8948 8.05828C16.0173 7.72534 15.9344 7.35482 15.6836 7.11431ZM13.5272 7.62235C13.2689 7.62235 13.0596 7.84261 13.0596 8.11432V14.9667H10.0846V10.8061C10.0846 10.5344 9.87524 10.3141 9.61701 10.3141H6.38359C6.12536 10.3141 5.91598 10.5344 5.91598 10.8061V14.9667H2.94082V8.11432C2.94082 7.84264 2.73147 7.62235 2.47321 7.62235H1.1756L8.00033 1.07978L10.3244 3.30783C10.4613 3.43905 10.6589 3.47286 10.8283 3.39422C10.9977 3.31548 11.1069 3.13897 11.1069 2.94417V2.04868H13.4051V6.04389C13.4051 6.18233 13.4605 6.3143 13.5578 6.40755L14.825 7.62235H13.5272Z"/>
<path fill-rule="evenodd" clip-rule="evenodd" d="M7.41641 0.238958C7.74865 -0.0796453 8.25119 -0.0796718 8.58354 0.238993L10.1217 1.71356V1.55642C10.1217 1.25967 10.351 1.01476 10.639 1.01476H13.8724C14.1604 1.01476 14.3897 1.2597 14.3897 1.55642V5.80511L15.7176 7.07814C15.9832 7.3327 16.0702 7.72418 15.9411 8.07515C15.8118 8.42638 15.4955 8.65568 15.1341 8.65568H14.0441V15.4583C14.0442 15.7551 13.8149 16 13.5269 16H9.61667C9.32862 16 9.09937 15.7551 9.09937 15.4583V11.3475H6.90058V15.4583C6.90058 15.7551 6.6713 16 6.38328 16H2.47294C2.18489 16 1.95564 15.755 1.95564 15.4583V8.65565H0.86592C0.504514 8.65565 0.188253 8.42639 0.058918 8.07512C-0.0702666 7.72418 0.0168545 7.3327 0.282307 7.07818L7.41641 0.238958C7.41641 0.23896 7.41641 0.238956 7.41641 0.238958ZM8.51476 0.310727C8.22085 0.0289171 7.77898 0.0289541 7.48519 0.310691L0.351083 7.14991C0.114923 7.37635 0.0362689 7.72591 0.152178 8.04079C0.267997 8.35535 0.54863 8.55627 0.86592 8.55627H2.05502V15.4583C2.05502 15.705 2.24447 15.9006 2.47294 15.9006H6.38328C6.61172 15.9006 6.8012 15.705 6.8012 15.4583V11.2481H9.19875V15.4583C9.19875 15.705 9.3882 15.9006 9.61667 15.9006H13.5269C13.7553 15.9006 13.9448 15.705 13.9447 15.4583V8.5563H15.1341C15.4514 8.5563 15.732 8.35535 15.8478 8.04082C15.9637 7.7259 15.8851 7.37635 15.6489 7.14988L14.2903 5.84751V1.55642C14.2903 1.30977 14.1009 1.11414 13.8724 1.11414H10.639C10.4106 1.11414 10.2211 1.30974 10.2211 1.55642V1.9465L8.51476 0.310727ZM8.00002 1.01065L10.3585 3.27166C10.4809 3.38899 10.6566 3.41871 10.807 3.34885C10.9579 3.27869 11.0569 3.1204 11.0569 2.94387V1.9987H13.4545V6.04359C13.4545 6.16891 13.5047 6.28779 13.5919 6.37138L14.9483 7.67175H13.5269C13.2984 7.67175 13.1089 7.86735 13.1089 8.11402V15.0161H10.0346V10.8058C10.0346 10.5592 9.84514 10.3635 9.6167 10.3635H6.38328C6.15484 10.3635 5.96536 10.5591 5.96536 10.8058V15.0161H2.89083V8.11402C2.89083 7.86737 2.70138 7.67175 2.47291 7.67175H1.05166L8.00002 1.01065ZM1.29893 7.57237H2.47291C2.76096 7.57237 2.99021 7.81731 2.99021 8.11402V14.9167H5.86598V10.8058C5.86598 10.5091 6.09526 10.2642 6.38328 10.2642H9.6167C9.90472 10.2642 10.134 10.5091 10.134 10.8058V14.9167H13.0096V8.11402C13.0096 7.81727 13.2388 7.57237 13.5269 7.57237H14.7011L13.5231 6.44312C13.4158 6.34021 13.3551 6.19515 13.3551 6.04359V2.09808H11.1563V2.94387C11.1563 3.15694 11.0368 3.35165 10.8489 3.43898C10.6606 3.52642 10.4411 3.48851 10.2897 3.3434L8.00002 1.14832L1.29893 7.57237Z"/>
</svg>
