<svg width="16" height="17" viewBox="0 0 16 17" fill="none" xmlns="http://www.w3.org/2000/svg">
<g clip-path="url(#clip0)">
<path d="M8.00021 16.4394C3.62251 16.4394 0.0612793 12.8782 0.0612793 8.50045C0.0612793 4.12275 3.62251 0.561523 8.00021 0.561523C12.3779 0.561523 15.9391 4.12275 15.9391 8.50045C15.9391 12.8782 12.3779 16.4394 8.00021 16.4394ZM8.00021 1.55389C4.16969 1.55389 1.05365 4.66993 1.05365 8.50045C1.05365 12.331 4.16969 15.447 8.00021 15.447C11.8307 15.447 14.9468 12.331 14.9468 8.50045C14.9468 4.66993 11.8307 1.55389 8.00021 1.55389Z" fill="#505050"/>
<path fill-rule="evenodd" clip-rule="evenodd" d="M8 0.622137C3.65603 0.622137 0.122137 4.15603 0.122137 8.5C0.122137 12.844 3.65603 16.3779 8 16.3779C12.344 16.3779 15.8779 12.844 15.8779 8.5C15.8779 4.15603 12.344 0.622137 8 0.622137ZM0 8.5C0 4.08857 3.58857 0.5 8 0.5C12.4114 0.5 16 4.08857 16 8.5C16 12.9114 12.4114 16.5 8 16.5C3.58857 16.5 0 12.9114 0 8.5ZM0.992366 8.5C0.992366 4.63575 4.13575 1.49237 8 1.49237C11.8642 1.49237 15.0076 4.63575 15.0076 8.5C15.0076 12.3642 11.8642 15.5076 8 15.5076C4.13575 15.5076 0.992366 12.3642 0.992366 8.5ZM8 1.6145C4.20321 1.6145 1.1145 4.70321 1.1145 8.5C1.1145 12.2968 4.20321 15.3855 8 15.3855C11.7968 15.3855 14.8855 12.2968 14.8855 8.5C14.8855 4.70321 11.7968 1.6145 8 1.6145Z" fill="#505050"/>
<path d="M11.4728 8.99621H4.52621C4.25232 8.99621 4.03003 8.77392 4.03003 8.50003C4.03003 8.22613 4.25232 8.00385 4.52621 8.00385H11.4728C11.7467 8.00385 11.969 8.22613 11.969 8.50003C11.969 8.77392 11.7467 8.99621 11.4728 8.99621Z" fill="#505050"/>
<path fill-rule="evenodd" clip-rule="evenodd" d="M4.52661 8.06489C4.28645 8.06489 4.0915 8.25983 4.0915 8.5C4.0915 8.74017 4.28645 8.93512 4.52661 8.93512H11.4732C11.7133 8.93512 11.9083 8.74017 11.9083 8.5C11.9083 8.25983 11.7133 8.06489 11.4732 8.06489H4.52661ZM3.96936 8.5C3.96936 8.19238 4.21899 7.94275 4.52661 7.94275H11.4732C11.7808 7.94275 12.0304 8.19238 12.0304 8.5C12.0304 8.80762 11.7808 9.05725 11.4732 9.05725H4.52661C4.21899 9.05725 3.96936 8.80762 3.96936 8.5Z" fill="#505050"/>
<path d="M7.99978 12.4695C7.72589 12.4695 7.5036 12.2472 7.5036 11.9733V5.02676C7.5036 4.75287 7.72589 4.53058 7.99978 4.53058C8.27368 4.53058 8.49597 4.75287 8.49597 5.02676V11.9733C8.49597 12.2472 8.27368 12.4695 7.99978 12.4695Z" fill="#505050"/>
<path fill-rule="evenodd" clip-rule="evenodd" d="M8.00018 4.59162C7.76002 4.59162 7.56507 4.78657 7.56507 5.02673V11.9733C7.56507 12.2135 7.76002 12.4084 8.00018 12.4084C8.24035 12.4084 8.4353 12.2135 8.4353 11.9733V5.02673C8.4353 4.78657 8.24035 4.59162 8.00018 4.59162ZM7.44293 5.02673C7.44293 4.71911 7.69256 4.46948 8.00018 4.46948C8.30781 4.46948 8.55744 4.71911 8.55744 5.02673V11.9733C8.55744 12.2809 8.30781 12.5306 8.00018 12.5306C7.69256 12.5306 7.44293 12.2809 7.44293 11.9733V5.02673Z" fill="#505050"/>
</g>
<defs>
<clipPath id="clip0">
<rect width="16" height="16" fill="white" transform="translate(0 0.5)"/>
</clipPath>
</defs>
</svg>
