<svg width="16" height="17" viewBox="0 0 16 17" fill="none" xmlns="http://www.w3.org/2000/svg">
<g clip-path="url(#clip0)">
<path d="M8 0.5C5.7944 0.5 4 2.2944 4 4.5C4 6.7056 5.7944 8.5 8 8.5C10.2056 8.5 12 6.7056 12 4.5C12 2.2944 10.2056 0.5 8 0.5ZM8 7.61111C6.28453 7.61111 4.88889 6.21547 4.88889 4.5C4.88889 2.78453 6.28453 1.38889 8 1.38889C9.71547 1.38889 11.1111 2.78453 11.1111 4.5C11.1111 6.21547 9.71547 7.61111 8 7.61111Z" fill="#505050"/>
<path d="M13.9721 11.213C12.658 9.92295 10.9159 9.21252 9.06667 9.21252H6.93333C5.08416 9.21252 3.34201 9.92295 2.02788 11.213C0.720178 12.4967 0 14.1912 0 15.9844C0 16.2692 0.238791 16.5 0.533333 16.5H15.4667C15.7612 16.5 16 16.2692 16 15.9844C16 14.1912 15.2798 12.4967 13.9721 11.213ZM1.09013 15.4688C1.35733 12.5439 3.87595 10.2438 6.93333 10.2438H9.06667C12.1241 10.2438 14.6427 12.5439 14.9099 15.4688H1.09013Z" fill="#505050"/>
</g>
<defs>
<clipPath id="clip0">
<rect width="16" height="16" fill="white" transform="translate(0 0.5)"/>
</clipPath>
</defs>
</svg>
