<svg width="16" height="16" viewBox="0 0 16 16" fill="#00a8c6" xmlns="http://www.w3.org/2000/svg">
<path d="M8 0C3.5785 0 0 3.57803 0 8C0 12.4215 3.57803 16 8 16C12.4215 16 16 12.422 16 8C16 3.5785 12.422 0 8 0ZM8 14.9333C4.17697 14.9333 1.06666 11.8231 1.06666 8C1.06666 4.17694 4.17697 1.06666 8 1.06666C11.823 1.06666 14.9333 4.17697 14.9333 8C14.9333 11.823 11.823 14.9333 8 14.9333Z"/>
<path d="M7.75461 10.8254C7.26292 10.8254 6.86489 11.2351 6.86489 11.7268C6.86489 12.2068 7.2512 12.6283 7.75461 12.6283C8.25802 12.6283 8.65605 12.2068 8.65605 11.7268C8.65605 11.2351 8.2463 10.8254 7.75461 10.8254Z"/>
<path d="M7.90653 4C6.32608 4 5.60019 4.93661 5.60019 5.56876C5.60019 6.02537 5.98658 6.23609 6.30263 6.23609C6.93483 6.23609 6.6773 5.33464 7.87144 5.33464C8.45683 5.33464 8.92512 5.59217 8.92512 6.13075C8.92512 6.7629 8.26952 7.12589 7.88316 7.45363C7.54362 7.74632 7.09874 8.22633 7.09874 9.23319C7.09874 9.8419 7.26265 10.0176 7.74262 10.0176C8.31632 10.0176 8.43338 9.76001 8.43338 9.53757C8.43338 8.92886 8.44507 8.57759 9.08894 8.07418C9.40508 7.82834 10.4002 7.03223 10.4002 5.93175C10.4002 4.83127 9.40508 4 7.90653 4Z"/>
</svg>
