<svg width="16" height="17" viewBox="0 0 16 17" fill="none" xmlns="http://www.w3.org/2000/svg">
<g clip-path="url(#clip0)">
<path d="M15.888 7.55215C15.8339 7.22711 15.5152 7.00568 15.1762 7.05754C14.8371 7.10939 14.6062 7.41495 14.6603 7.73998C14.6608 7.74355 14.6615 7.74707 14.6621 7.7506C15.2952 11.3233 12.7873 14.7116 9.06072 15.3185C5.33409 15.9254 1.79989 13.5211 1.16683 9.94841C0.533772 6.37569 3.04164 2.98744 6.76823 2.38053C9.06003 2.0073 11.3928 2.77478 12.9625 4.41851L10.2087 5.29815C9.88289 5.40207 9.70671 5.73947 9.81507 6.0518C9.81511 6.05187 9.81514 6.05197 9.81518 6.05204C9.92358 6.36437 10.2755 6.53328 10.6013 6.42939C10.6014 6.42936 10.6015 6.42932 10.6015 6.42932L14.3314 5.23739C14.5854 5.1563 14.7567 4.92845 14.7566 4.67182V1.09598C14.7566 0.766826 14.4783 0.5 14.135 0.5C13.7916 0.5 13.5133 0.766826 13.5133 1.09598V3.27305C10.3119 0.353859 5.2482 0.475486 2.20325 3.5447C-0.841691 6.61391 -0.714861 11.4685 2.4866 14.3877C5.68806 17.307 10.7517 17.1853 13.7967 14.1161C15.533 12.3659 16.3079 9.93378 15.888 7.55215Z" fill="#505050"/>
</g>
<defs>
<clipPath id="clip0">
<rect width="16" height="16" fill="white" transform="translate(0 0.5)"/>
</clipPath>
</defs>
</svg>
