<svg width="10" height="17" viewBox="0 0 10 17" fill="none" xmlns="http://www.w3.org/2000/svg">
<g clip-path="url(#clip0)">
<path d="M8.12965 0.5H1.87035C0.839043 0.5 0 1.32503 0 2.33918V13.9913V14.6608C0 15.6749 0.839043 16.5 1.87035 16.5H8.12965C9.16096 16.5 10 15.675 10 14.6608V13.9928V13.9913V2.33918C10 1.32503 9.16096 0.5 8.12965 0.5V0.5ZM1.87035 1.125H8.12965C8.81049 1.125 9.36441 1.66969 9.36441 2.33918V13.6789H0.63559V2.33918C0.63559 1.66969 1.18951 1.125 1.87035 1.125ZM8.12965 15.875H1.87035C1.18951 15.875 0.63559 15.3303 0.63559 14.6608V14.3039L9.36441 14.3053V14.6608C9.36441 15.3303 8.81049 15.875 8.12965 15.875Z" fill="#505050"/>
<path fill-rule="evenodd" clip-rule="evenodd" d="M-0.0999985 2.33921C-0.0999985 1.26825 0.785408 0.400024 1.87035 0.400024H8.12965C9.21459 0.400024 10.1 1.26825 10.1 2.33921V14.6608C10.1 15.7318 9.21459 16.6 8.12965 16.6H1.87035C0.785407 16.6 -0.0999985 15.7318 -0.0999985 14.6608V2.33921ZM8.12965 0.600024H1.87035C0.892681 0.600024 0.100002 1.38186 0.100002 2.33921V14.6608C0.100002 15.6182 0.892682 16.4 1.87035 16.4H8.12965C9.10732 16.4 9.9 15.6182 9.9 14.6608V2.33921C9.9 1.38186 9.10732 0.600024 8.12965 0.600024ZM1.87035 1.22502C1.24315 1.22502 0.735592 1.72652 0.735592 2.33921V13.5789H9.26441V2.33921C9.26441 1.72652 8.75686 1.22502 8.12965 1.22502H1.87035ZM0.535592 2.33921C0.535592 1.6129 1.13587 1.02502 1.87035 1.02502H8.12965C8.86413 1.02502 9.46441 1.6129 9.46441 2.33921V13.7789H0.535592V2.33921ZM0.535592 14.2039L9.46441 14.2053V14.6608C9.46441 15.3871 8.86413 15.975 8.12965 15.975H1.87035C1.13587 15.975 0.535592 15.3871 0.535592 14.6608V14.2039ZM0.735592 14.4039V14.6608C0.735592 15.2735 1.24315 15.775 1.87035 15.775H8.12965C8.75686 15.775 9.26441 15.2735 9.26441 14.6608V14.4053L0.735592 14.4039Z" fill="#505050"/>
<path fill-rule="evenodd" clip-rule="evenodd" d="M8.12965 0.5C8.47104 0.5 8.79136 0.590404 9.06715 0.748147C9.6245 1.06693 10 1.66074 10 2.33918V14.6608C10 15.6749 9.16096 16.5 8.12965 16.5H1.87035C0.839043 16.5 0 15.6749 0 14.6608V2.33918C0 1.32503 0.839043 0.5 1.87035 0.5H8.12965ZM0.63559 13.6789H9.36441V2.33918C9.36441 1.97394 9.19955 1.64585 8.93917 1.42308C8.72226 1.23749 8.43906 1.125 8.12965 1.125H1.87035C1.18951 1.125 0.63559 1.66969 0.63559 2.33918V13.6789ZM0.63559 14.3039V14.6608C0.63559 14.6608 0.63559 14.6608 0.63559 14.6608C0.635596 14.8651 0.687194 15.0578 0.778246 15.227C0.985534 15.612 1.39731 15.875 1.87035 15.875H8.12965C8.60215 15.875 9.01352 15.6126 9.22104 15.2283C9.31074 15.0622 9.36236 14.8732 9.36435 14.6728C9.36439 14.6688 9.36441 14.6648 9.36441 14.6608C9.36441 14.6608 9.36441 14.6608 9.36441 14.6608V14.3053L0.63559 14.3039Z" fill="#505050"/>
<path fill-rule="evenodd" clip-rule="evenodd" d="M-0.0999985 2.33921C-0.0999985 1.26825 0.785408 0.400024 1.87035 0.400024H8.12965C8.48889 0.400024 8.82627 0.495194 9.1168 0.661367C9.70341 0.996883 10.1 1.62277 10.1 2.33921V14.6608C10.1 15.7318 9.2146 16.6 8.12965 16.6H1.87035C0.785407 16.6 -0.0999985 15.7318 -0.0999985 14.6608V2.33921ZM1.87035 0.600024C0.892681 0.600024 0.100002 1.38186 0.100002 2.33921V14.6608C0.100002 15.6182 0.892682 16.4 1.87035 16.4H8.12965C9.10732 16.4 9.9 15.6182 9.9 14.6608V2.33921C9.9 1.69876 9.54561 1.13703 9.0175 0.834975C8.75645 0.685663 8.45319 0.600024 8.12965 0.600024H1.87035ZM1.87035 1.22502C1.24315 1.22502 0.735592 1.72652 0.735592 2.33921V13.5789H9.26441V2.33921C9.26441 2.00483 9.11362 1.70395 8.87416 1.49908C8.67477 1.32848 8.41444 1.22502 8.12965 1.22502H1.87035ZM0.535592 2.33921C0.535592 1.6129 1.13587 1.02502 1.87035 1.02502H8.12965C8.46369 1.02502 8.76976 1.14655 9.00418 1.34711C9.28549 1.5878 9.46441 1.9431 9.46441 2.33921V13.7789H0.535592V2.33921ZM0.535592 14.2039L9.46441 14.2053V14.6608L9.46435 14.6739C9.46219 14.891 9.40622 15.0958 9.30903 15.2758C9.08451 15.6917 8.63985 15.975 8.12965 15.975H1.87035C1.35957 15.975 0.914469 15.691 0.690196 15.2744C0.59154 15.0911 0.535598 14.8822 0.535592 14.6608V14.2039ZM0.735592 14.4039V14.6608C0.735597 14.8481 0.78285 15.0246 0.8663 15.1796C1.0566 15.5331 1.43505 15.775 1.87035 15.775H8.12965C8.56445 15.775 8.94253 15.5337 9.13305 15.1808C9.21527 15.0285 9.26253 14.8555 9.26436 14.6719L9.26441 14.6608V14.4053L0.735592 14.4039Z" fill="#505050"/>
<path d="M5.32259 14.7307H4.67619C4.50068 14.7307 4.3584 14.8706 4.3584 15.0432C4.3584 15.2157 4.50068 15.3557 4.67619 15.3557H5.32262C5.49814 15.3557 5.64041 15.2157 5.64041 15.0432C5.64041 14.8706 5.49811 14.7307 5.32259 14.7307Z" fill="#505050"/>
<path fill-rule="evenodd" clip-rule="evenodd" d="M4.2584 15.0432C4.2584 14.8138 4.44703 14.6307 4.67619 14.6307H5.32259C5.55174 14.6307 5.74041 14.8138 5.74041 15.0432C5.74041 15.2725 5.55178 15.4557 5.32262 15.4557H4.67619C4.44703 15.4557 4.2584 15.2725 4.2584 15.0432ZM4.67619 14.8307C4.55432 14.8307 4.4584 14.9274 4.4584 15.0432C4.4584 15.1589 4.55432 15.2557 4.67619 15.2557H5.32262C5.44449 15.2557 5.54041 15.1589 5.54041 15.0432C5.54041 14.9274 5.44448 14.8307 5.32259 14.8307H4.67619Z" fill="#505050"/>
<path fill-rule="evenodd" clip-rule="evenodd" d="M5.20874 15.3557C5.26406 15.2643 5.2959 15.1575 5.2959 15.0432C5.2959 14.9288 5.26406 14.822 5.20874 14.7307H5.32259C5.3226 14.7307 5.32258 14.7307 5.32259 14.7307C5.49809 14.7307 5.64041 14.8706 5.64041 15.0432C5.64041 15.2157 5.49814 15.3557 5.32262 15.3557H5.20874ZM4.79007 14.7307H4.67619C4.50068 14.7307 4.3584 14.8706 4.3584 15.0432C4.3584 15.2157 4.50068 15.3557 4.67619 15.3557H4.79006C4.73474 15.2644 4.70291 15.1575 4.70291 15.0432C4.70291 14.9288 4.73475 14.822 4.79007 14.7307Z" fill="#505050"/>
<path fill-rule="evenodd" clip-rule="evenodd" d="M4.2584 15.0432C4.2584 14.8138 4.44703 14.6307 4.67619 14.6307H4.96759L4.8756 14.7825C4.82944 14.8587 4.80291 14.9476 4.80291 15.0432C4.80291 15.1387 4.82944 15.2277 4.87559 15.3039L4.96757 15.4557H4.67619C4.44703 15.4557 4.2584 15.2725 4.2584 15.0432ZM4.63442 14.8346C4.5331 14.8537 4.4584 14.941 4.4584 15.0432C4.4584 15.1453 4.5331 15.2327 4.63442 15.2518C4.61394 15.1858 4.60291 15.1158 4.60291 15.0432C4.60291 14.9706 4.61395 14.9005 4.63442 14.8346ZM5.03122 14.6307H5.32259C5.55171 14.6307 5.74041 14.8138 5.74041 15.0432C5.74041 15.2725 5.55178 15.4557 5.32262 15.4557H5.03122L5.12322 15.3039C5.16937 15.2277 5.1959 15.1387 5.1959 15.0432C5.1959 14.9476 5.16937 14.8587 5.12322 14.7825L5.03122 14.6307ZM5.32259 14.8307C5.32259 14.8307 5.32259 14.8307 5.32259 14.8307V14.8307Z" fill="#505050"/>
<path d="M7.86762 6.08491H6.1887V4.43397C6.1887 4.27115 6.05448 4.13916 5.8889 4.13916H4.09005C3.92447 4.13916 3.79025 4.27115 3.79025 4.43397V6.08491H2.11133C1.94575 6.08491 1.81152 6.2169 1.81152 6.37972V8.14859C1.81152 8.31141 1.94575 8.4434 2.11133 8.4434H3.79025V10.0943C3.79025 10.2572 3.92447 10.3891 4.09005 10.3891H5.8889C6.05448 10.3891 6.1887 10.2572 6.1887 10.0943V8.4434H7.86762C8.0332 8.4434 8.16743 8.31141 8.16743 8.14859V6.37972C8.16743 6.2169 8.0332 6.08491 7.86762 6.08491ZM7.56781 7.85375H5.8889C5.72331 7.85375 5.58909 7.98573 5.58909 8.14856V9.7995H4.38986V8.14856C4.38986 7.98573 4.25564 7.85375 4.09005 7.85375H2.41114V6.6745H4.09005C4.25564 6.6745 4.38986 6.54252 4.38986 6.37969V4.72875H5.58909V6.37969C5.58909 6.54252 5.72331 6.6745 5.8889 6.6745H7.56781V7.85375Z" fill="#505050"/>
<path fill-rule="evenodd" clip-rule="evenodd" d="M3.69025 4.43393C3.69025 4.2143 3.87084 4.03912 4.09006 4.03912H5.8889C6.10812 4.03912 6.2887 4.2143 6.2887 4.43393V5.98487H7.86762C8.08684 5.98487 8.26743 6.16005 8.26743 6.37969V8.14855C8.26743 8.36818 8.08684 8.54336 7.86762 8.54336H6.2887V10.0943C6.2887 10.3139 6.10812 10.4891 5.8889 10.4891H4.09006C3.87084 10.4891 3.69025 10.3139 3.69025 10.0943V8.54336H2.11133C1.89211 8.54336 1.71152 8.36818 1.71152 8.14855V6.37969C1.71152 6.16006 1.89211 5.98487 2.11133 5.98487H3.69025V4.43393ZM4.09006 4.23912C3.97811 4.23912 3.89025 4.32792 3.89025 4.43393V6.18487H2.11133C1.99939 6.18487 1.91152 6.27367 1.91152 6.37969V8.14855C1.91152 8.25457 1.99939 8.34336 2.11133 8.34336H3.89025V10.0943C3.89025 10.2003 3.97811 10.2891 4.09006 10.2891H5.8889C6.00084 10.2891 6.0887 10.2003 6.0887 10.0943V8.34336H7.86762C7.97957 8.34336 8.06743 8.25457 8.06743 8.14855V6.37969C8.06743 6.27367 7.97957 6.18487 7.86762 6.18487H6.0887V4.43393C6.0887 4.32792 6.00084 4.23912 5.8889 4.23912H4.09006ZM4.28986 4.62872H5.68909V6.37966C5.68909 6.48567 5.77695 6.57447 5.8889 6.57447H7.66782V7.95371H5.8889C5.77695 7.95371 5.68909 8.0425 5.68909 8.14852V9.89946H4.28986V8.14852C4.28986 8.0425 4.202 7.95371 4.09006 7.95371H2.31114V6.57447H4.09006C4.202 6.57447 4.28986 6.48567 4.28986 6.37966V4.62872ZM4.48986 4.82872V6.37966C4.48986 6.59929 4.30928 6.77447 4.09006 6.77447H2.51114V7.75371H4.09006C4.30928 7.75371 4.48986 7.92889 4.48986 8.14852V9.69946H5.48909V8.14852C5.48909 7.92889 5.66968 7.75371 5.8889 7.75371H7.46782V6.77447H5.8889C5.66968 6.77447 5.48909 6.59929 5.48909 6.37966V4.82872H4.48986Z" fill="#505050"/>
<path fill-rule="evenodd" clip-rule="evenodd" d="M5.58909 6.37969C5.58909 6.54252 5.72331 6.6745 5.8889 6.6745H7.56781V7.85375H5.8889C5.72331 7.85375 5.58909 7.98573 5.58909 8.14856V9.7995H4.38986V8.14856C4.38986 7.98573 4.25564 7.85375 4.09005 7.85375H2.41114V6.6745H4.09005C4.25564 6.6745 4.38986 6.54252 4.38986 6.37969V4.72875H5.58909V6.37969ZM3.79025 6.08491V4.43397C3.79025 4.27115 3.92447 4.13916 4.09005 4.13916H5.8889C6.05448 4.13916 6.1887 4.27115 6.1887 4.43397V6.08491H7.86762C8.0332 6.08491 8.16743 6.2169 8.16743 6.37972V8.14859C8.16743 8.31141 8.0332 8.4434 7.86762 8.4434H6.1887V10.0943C6.1887 10.2572 6.05448 10.3891 5.8889 10.3891H4.09005C3.92447 10.3891 3.79025 10.2572 3.79025 10.0943V8.4434H2.11133C1.94575 8.4434 1.81152 8.31141 1.81152 8.14859V6.37972C1.81152 6.2169 1.94575 6.08491 2.11133 6.08491H3.79025Z" fill="#505050"/>
<path fill-rule="evenodd" clip-rule="evenodd" d="M3.69025 4.43393C3.69025 4.2143 3.87084 4.03912 4.09006 4.03912H5.8889C6.10812 4.03912 6.2887 4.2143 6.2887 4.43393V5.98487H7.86762C8.08684 5.98487 8.26743 6.16006 8.26743 6.37969V8.14855C8.26743 8.36818 8.08684 8.54336 7.86762 8.54336H6.2887V10.0943C6.2887 10.3139 6.10812 10.4891 5.8889 10.4891H4.09006C3.87084 10.4891 3.69025 10.3139 3.69025 10.0943V8.54336H2.11133C1.89211 8.54336 1.71152 8.36818 1.71152 8.14855V6.37969C1.71152 6.16006 1.89211 5.98487 2.11133 5.98487H3.69025V4.43393ZM4.09006 4.23912C3.97811 4.23912 3.89025 4.32792 3.89025 4.43393V6.18487H2.11133C1.99939 6.18487 1.91152 6.27367 1.91152 6.37969V8.14855C1.91152 8.25457 1.99939 8.34336 2.11133 8.34336H3.89025V10.0943C3.89025 10.2003 3.97811 10.2891 4.09006 10.2891H5.8889C6.00084 10.2891 6.0887 10.2003 6.0887 10.0943V8.34336H7.86762C7.97957 8.34336 8.06743 8.25457 8.06743 8.14855V6.37969C8.06743 6.27367 7.97957 6.18487 7.86762 6.18487H6.0887V4.43393C6.0887 4.32792 6.00084 4.23912 5.8889 4.23912H4.09006ZM4.28986 4.62872H5.68909V6.37966C5.68909 6.48567 5.77695 6.57447 5.8889 6.57447H7.66782V7.95371H5.8889C5.77695 7.95371 5.68909 8.0425 5.68909 8.14852V9.89946H4.28986V8.14852C4.28986 8.0425 4.202 7.95371 4.09006 7.95371H2.31114V6.57447H4.09006C4.202 6.57447 4.28986 6.48567 4.28986 6.37966V4.62872ZM4.48986 4.82872V6.37966C4.48986 6.59929 4.30928 6.77447 4.09006 6.77447H2.51114V7.75371H4.09006C4.30928 7.75371 4.48986 7.92889 4.48986 8.14852V9.69946H5.48909V8.14852C5.48909 7.92889 5.66968 7.75371 5.8889 7.75371H7.46782V6.77447H5.8889C5.66968 6.77447 5.48909 6.59929 5.48909 6.37966V4.82872H4.48986Z" fill="#505050"/>
</g>
<defs>
<clipPath id="clip0">
<rect width="10" height="16" fill="white" transform="translate(0 0.5)"/>
</clipPath>
</defs>
</svg>
